<?xml version="1.0" encoding="utf-8" standalone="no"?>
<!DOCTYPE svg PUBLIC "-//W3C//DTD SVG 1.1//EN"
  "http://www.w3.org/Graphics/SVG/1.1/DTD/svg11.dtd">
<svg height="576pt" version="1.1" viewBox="0 0 1008 576" width="1008pt" xmlns="http://www.w3.org/2000/svg" xmlns:xlink="http://www.w3.org/1999/xlink">
 <metadata>
  <rdf:RDF xmlns:cc="http://creativecommons.org/ns#" xmlns:dc="http://purl.org/dc/elements/1.1/" xmlns:rdf="http://www.w3.org/1999/02/22-rdf-syntax-ns#">
   <cc:Work>
    <dc:type rdf:resource="http://purl.org/dc/dcmitype/StillImage"/>
    <dc:date>2021-11-05T13:49:22.070734</dc:date>
    <dc:format>image/svg+xml</dc:format>
    <dc:creator>
     <cc:Agent>
      <dc:title>Matplotlib v3.4.3, https://matplotlib.org/</dc:title>
     </cc:Agent>
    </dc:creator>
   </cc:Work>
  </rdf:RDF>
 </metadata>
 <defs>
  <style type="text/css">*{stroke-linecap:butt;stroke-linejoin:round;}</style>
 </defs>
 <g id="figure_1">
  <g id="patch_1">
   <path d="M 0 576 
L 1008 576 
L 1008 0 
L 0 0 
z
" style="fill:#ffffff;"/>
  </g>
  <g id="axes_1">
   <g id="patch_2">
    <path d="M 74.27 516.76 
L 808.02 516.76 
L 808.02 17.28 
L 74.27 17.28 
z
" style="fill:#ffffff;"/>
   </g>
   <g id="PolyCollection_1">
    <defs>
     <path d="M 107.622273 -119.058817 
L 107.622273 -96.432762 
L 111.154784 -111.25698 
L 114.694901 -116.480058 
L 118.214646 -115.933711 
L 121.722848 -120.46475 
L 125.258754 -121.309767 
L 128.79792 -118.272077 
L 132.33016 -121.885253 
L 135.848954 -119.408479 
L 139.388528 -125.236182 
L 142.898631 -125.899083 
L 146.413894 -123.400455 
L 149.942196 -124.791819 
L 153.46425 -124.522288 
L 156.994045 -122.548154 
L 160.525334 -128.652672 
L 164.062599 -130.240721 
L 167.596468 -125.199758 
L 171.125856 -127.013631 
L 174.649268 -125.07592 
L 178.173495 -127.32687 
L 181.722303 -132.564517 
L 185.250876 -137.459788 
L 188.772794 -138.516059 
L 192.311417 -149.239031 
L 195.840669 -154.928326 
L 199.391786 -166.831408 
L 202.919544 -179.339115 
L 206.453685 -193.981218 
L 209.971393 -213.001382 
L 213.486929 -226.616352 
L 217.034107 -257.79456 
L 220.533481 -285.592701 
L 224.056486 -301.334783 
L 227.579219 -312.880918 
L 231.092853 -339.214849 
L 234.633242 -346.659739 
L 238.166704 -356.53041 
L 241.694326 -361.760773 
L 245.240282 -369.045402 
L 248.774831 -396.253488 
L 252.317799 -395.525025 
L 255.850582 -405.942043 
L 259.376031 -411.995569 
L 262.912617 -404.951334 
L 266.439696 -415.892845 
L 269.964602 -424.146329 
L 273.491953 -422.638411 
L 277.029353 -430.294555 
L 280.552222 -449.970336 
L 284.08256 -453.044449 
L 287.6148 -444.332034 
L 291.143373 -450.116028 
L 294.668007 -450.698799 
L 298.200519 -460.533047 
L 301.753537 -457.189402 
L 305.316198 -464.707139 
L 308.866093 -453.736489 
L 312.409333 -458.966852 
L 315.936276 -463.046243 
L 319.473677 -473.936762 
L 323.002385 -467.315035 
L 326.548477 -462.405196 
L 330.079359 -457.837734 
L 333.609697 -456.16227 
L 337.142752 -442.175784 
L 340.697536 -449.963051 
L 344.216466 -437.076544 
L 347.744768 -426.419133 
L 351.28244 -415.528614 
L 354.817124 -385.515946 
L 358.352895 -402.073906 
L 361.863677 -389.25296 
L 365.414794 -367.21696 
L 368.94649 -381.167023 
L 372.459174 -368.593755 
L 375.99671 -344.379651 
L 379.55 -351.686133 
L 383.080202 -353.929798 
L 386.620591 -335.09175 
L 390.129743 -349.879545 
L 393.648673 -349.792129 
L 397.18879 -340.504228 
L 400.707449 -344.933282 
L 404.2147 -340.241982 
L 407.740285 -338.865187 
L 411.257721 -342.640081 
L 414.805308 -335.987759 
L 418.353029 -324.900555 
L 421.902381 -333.197746 
L 425.443312 -323.975407 
L 428.941872 -339.426103 
L 432.460802 -326.481319 
L 435.968596 -341.828027 
L 439.501379 -322.897282 
L 443.031174 -333.773232 
L 446.573871 -327.544875 
L 450.094024 -326.087949 
L 453.629387 -339.222134 
L 457.176974 -335.426843 
L 460.705546 -334.858642 
L 464.244169 -334.567256 
L 467.767174 -339.535373 
L 471.281623 -343.439934 
L 474.794713 -342.959148 
L 478.324916 -345.46506 
L 481.849415 -346.841855 
L 485.387087 -349.10009 
L 488.903573 -345.938561 
L 492.4278 -342.318101 
L 495.947138 -356.945634 
L 499.479785 -355.568839 
L 503.001024 -356.54498 
L 506.535437 -363.39253 
L 510.056404 -356.100617 
L 513.589187 -364.303109 
L 517.113143 -368.251377 
L 520.631801 -355.051631 
L 524.146522 -366.932859 
L 527.675638 -356.304587 
L 531.184654 -309.865082 
L 534.71445 -301.917553 
L 538.234467 -291.995889 
L 541.764533 -284.303322 
L 545.287538 -287.355581 
L 548.811222 -292.775345 
L 552.358536 -290.742933 
L 555.882628 -286.168187 
L 559.413373 -284.04836 
L 562.944798 -291.070742 
L 566.456667 -294.479948 
L 570.008191 -295.295826 
L 573.54953 -290.32771 
L 577.086251 -293.693208 
L 580.618491 -294.960733 
L 584.149644 -295.630919 
L 587.681205 -306.273761 
L 591.208556 -307.191624 
L 594.726535 -310.69553 
L 598.275887 -307.147916 
L 601.817362 -306.863816 
L 605.348379 -310.629968 
L 608.882384 -316.049732 
L 612.399278 -319.356953 
L 615.910196 -304.350619 
L 619.451399 -316.501379 
L 622.972366 -323.582037 
L 626.503248 -320.420509 
L 630.050426 -310.724668 
L 633.586876 -318.286112 
L 637.1164 -317.44838 
L 640.650133 -316.654356 
L 644.165125 -313.587527 
L 647.699266 -312.502118 
L 651.233 -320.930433 
L 654.746498 -309.639259 
L 658.25728 -318.307966 
L 661.793051 -322.788013 
L 665.331266 -320.821163 
L 668.854271 -320.762886 
L 672.374695 -331.75539 
L 675.915491 -329.722979 
L 679.449768 -333.387147 
L 682.94792 -330.138202 
L 686.480974 -342.558494 
L 690.010769 -338.697641 
L 693.520057 -342.463793 
L 697.059088 -342.63134 
L 700.586438 -345.210098 
L 704.115011 -347.293502 
L 707.638695 -355.073485 
L 711.157897 -359.524393 
L 714.679136 -364.252116 
L 718.214092 -353.230474 
L 721.750406 -355.45957 
L 725.301387 -364.936871 
L 728.80307 -367.471922 
L 732.336125 -368.550047 
L 735.862253 -370.604312 
L 739.398974 -375.251905 
L 742.92551 -369.460625 
L 746.434934 -377.189616 
L 749.965408 -378.857796 
L 753.509599 -384.321267 
L 757.033555 -386.156993 
L 760.555201 -391.380071 
L 764.073045 -388.845021 
L 767.591025 -389.085414 
L 771.119326 -393.244936 
L 774.667727 -397.054797 
L 774.667727 -427.35885 
L 774.667727 -427.35885 
L 771.119326 -425.603255 
L 767.591025 -424.743668 
L 764.073045 -410.371097 
L 760.555201 -428.764783 
L 757.033555 -420.59143 
L 753.509599 -410.210835 
L 749.965408 -411.857161 
L 746.434934 -394.315777 
L 742.92551 -398.154776 
L 739.398974 -414.071688 
L 735.862253 -397.054797 
L 732.336125 -401.59312 
L 728.80307 -397.448167 
L 725.301387 -385.450384 
L 721.750406 -379.55712 
L 718.214092 -391.336364 
L 714.679136 -391.839003 
L 711.157897 -388.422512 
L 707.638695 -383.447111 
L 704.115011 -383.66565 
L 700.586438 -376.548569 
L 697.059088 -373.022808 
L 693.520057 -372.818839 
L 690.010769 -372.199646 
L 686.480974 -368.819578 
L 682.94792 -363.122999 
L 679.449768 -352.822535 
L 675.915491 -358.708514 
L 672.374695 -357.841643 
L 668.854271 -354.665546 
L 665.331266 -347.905411 
L 661.793051 -348.094811 
L 658.25728 -347.067678 
L 654.746498 -335.652666 
L 651.233 -349.304059 
L 647.699266 -328.4336 
L 644.165125 -336.184444 
L 640.650133 -337.663223 
L 637.1164 -332.505707 
L 633.586876 -342.507501 
L 630.050426 -320.828448 
L 626.503248 -336.74536 
L 622.972366 -334.851357 
L 619.451399 -334.050048 
L 615.910196 -324.274077 
L 612.399278 -343.804165 
L 608.882384 -340.970445 
L 605.348379 -335.193734 
L 601.817362 -334.050048 
L 598.275887 -343.461787 
L 594.726535 -329.096501 
L 591.208556 -326.576019 
L 587.681205 -334.545403 
L 584.149644 -324.055538 
L 580.618491 -325.636302 
L 577.086251 -322.868144 
L 573.54953 -315.678216 
L 570.008191 -316.887464 
L 566.456667 -326.779989 
L 562.944798 -319.32053 
L 559.413373 -319.69933 
L 555.882628 -311.394854 
L 552.358536 -320.231108 
L 548.811222 -315.481531 
L 545.287538 -310.20746 
L 541.764533 -306.302899 
L 538.234467 -316.071586 
L 534.71445 -313.740505 
L 531.184654 -341.902877 
L 527.675638 -384.707352 
L 524.146522 -390.564193 
L 520.631801 -383.891474 
L 517.113143 -391.336364 
L 513.589187 -386.353678 
L 510.056404 -388.305958 
L 506.535437 -395.153509 
L 503.001024 -384.933176 
L 499.479785 -380.183598 
L 495.947138 -382.339848 
L 492.4278 -373.357901 
L 488.903573 -371.150659 
L 485.387087 -388.604628 
L 481.849415 -368.768586 
L 478.324916 -379.906782 
L 474.794713 -367.173252 
L 471.281623 -368.1931 
L 467.767174 -372.607585 
L 464.244169 -364.936871 
L 460.705546 -363.560077 
L 457.176974 -364.193839 
L 453.629387 -362.620359 
L 450.094024 -348.094811 
L 446.573871 -359.67737 
L 443.031174 -355.241031 
L 439.501379 -353.594705 
L 435.968596 -365.679903 
L 432.460802 -353.041073 
L 428.941872 -360.857479 
L 425.443312 -356.683388 
L 421.902381 -353.565567 
L 418.353029 -361.72435 
L 414.805308 -353.773361 
L 411.257721 -369.868564 
L 407.740285 -353.084781 
L 404.2147 -362.846183 
L 400.707449 -364.361386 
L 397.18879 -360.788822 
L 393.648673 -366.510351 
L 390.129743 -375.477728 
L 386.620591 -352.90995 
L 383.080202 -370.699012 
L 379.55 -378.143902 
L 375.99671 -378.355156 
L 372.459174 -396.450173 
L 368.94649 -408.06187 
L 365.414794 -393.987968 
L 361.863677 -417.342486 
L 358.352895 -426.411848 
L 354.817124 -416.963686 
L 351.28244 -438.599031 
L 347.744768 -456.504647 
L 344.216466 -456.184124 
L 340.697536 -467.307751 
L 337.142752 -474.534102 
L 333.609697 -493.044342 
L 330.079359 -484.812712 
L 326.548477 -491.90794 
L 323.002385 -496.380702 
L 319.473677 -488.425888 
L 315.936276 -493.729097 
L 312.409333 -491.041069 
L 308.866093 -479.422087 
L 305.316198 -481.585622 
L 301.753537 -482.423354 
L 298.200519 -481.112121 
L 294.668007 -488.782835 
L 291.143373 -477.134714 
L 287.6148 -488.753696 
L 284.08256 -479.800888 
L 280.552222 -483.159102 
L 277.029353 -470.301733 
L 273.491953 -463.687291 
L 269.964602 -469.66797 
L 266.439696 -458.908575 
L 262.912617 -451.34713 
L 259.376031 -446.786953 
L 255.850582 -436.741451 
L 252.317799 -439.174517 
L 248.774831 -429.828339 
L 245.240282 -417.845126 
L 241.694326 -408.622786 
L 238.166704 -392.997259 
L 234.633242 -381.924624 
L 231.092853 -379.396858 
L 227.579219 -350.673569 
L 224.056486 -333.052054 
L 220.533481 -309.529989 
L 217.034107 -302.981109 
L 213.486929 -272.720763 
L 209.971393 -251.333095 
L 206.453685 -231.904992 
L 202.919544 -216.672834 
L 199.391786 -206.809448 
L 195.840669 -193.15077 
L 192.311417 -182.704613 
L 188.772794 -165.918402 
L 185.250876 -171.122054 
L 181.722303 -164.179804 
L 178.173495 -162.045408 
L 174.649268 -157.273976 
L 171.125856 -156.61836 
L 167.596468 -158.607063 
L 164.062599 -165.126805 
L 160.525334 -160.610336 
L 156.994045 -151.876067 
L 153.46425 -156.41439 
L 149.942196 -157.252122 
L 146.413894 -150.397287 
L 142.898631 -159.830881 
L 139.388528 -159.204403 
L 135.848954 -152.269437 
L 132.33016 -152.30586 
L 128.79792 -155.32898 
L 125.258754 -152.801215 
L 121.722848 -151.395281 
L 118.214646 -147.11192 
L 114.694901 -150.295302 
L 111.154784 -140.919986 
L 107.622273 -119.058817 
z
" id="mbecd11b9f0" style="stroke:#1f77b4;stroke-opacity:0.2;"/>
    </defs>
    <g clip-path="url(#p80c2fd0b02)">
     <use style="fill:#1f77b4;fill-opacity:0.2;stroke:#1f77b4;stroke-opacity:0.2;" x="0" xlink:href="#mbecd11b9f0" y="576"/>
    </g>
   </g>
   <g id="PolyCollection_2">
    <defs>
     <path d="M 107.622273 -131.770493 
L 107.622273 -91.8653 
L 111.154784 -123.677271 
L 114.694901 -136.454509 
L 118.214646 -135.981008 
L 121.722848 -140.497478 
L 125.258754 -137.328664 
L 128.79792 -146.128495 
L 132.33016 -141.61931 
L 135.848954 -140.2498 
L 139.388528 -148.510569 
L 142.898631 -150.207887 
L 146.413894 -139.776299 
L 149.942196 -141.765003 
L 153.46425 -144.380184 
L 156.994045 -134.997583 
L 160.525334 -149.224462 
L 164.062599 -151.774082 
L 167.596468 -142.762997 
L 171.125856 -138.727313 
L 174.649268 -140.788863 
L 178.173495 -145.152355 
L 181.722303 -148.838377 
L 185.250876 -155.394542 
L 188.772794 -144.875539 
L 192.311417 -162.620893 
L 195.840669 -172.48428 
L 199.391786 -183.025137 
L 202.919544 -187.286644 
L 206.453685 -197.091754 
L 209.971393 -210.036538 
L 213.486929 -219.258877 
L 217.034107 -243.560397 
L 220.533481 -247.348403 
L 224.056486 -280.136515 
L 227.579219 -294.101147 
L 231.092853 -316.355686 
L 234.633242 -328.397176 
L 238.166704 -350.105368 
L 241.694326 -366.029565 
L 245.240282 -383.243142 
L 248.774831 -397.724983 
L 252.317799 -414.428635 
L 255.850582 -415.455768 
L 259.376031 -430.134293 
L 262.912617 -436.37722 
L 266.439696 -438.569893 
L 269.964602 -458.617189 
L 273.491953 -460.22952 
L 277.029353 -467.883236 
L 280.552222 -474.708933 
L 284.08256 -466.069364 
L 287.6148 -480.16512 
L 291.143373 -461.82971 
L 294.668007 -475.488388 
L 298.200519 -461.159525 
L 301.753537 -458.522489 
L 305.316198 -442.430746 
L 308.866093 -447.763093 
L 312.409333 -422.536426 
L 315.936276 -432.210412 
L 319.473677 -413.241241 
L 323.002385 -406.524813 
L 326.548477 -387.533788 
L 330.079359 -365.257395 
L 333.609697 -361.797196 
L 337.142752 -344.940567 
L 340.697536 -330.342172 
L 344.216466 -319.947008 
L 347.744768 -315.525238 
L 351.28244 -302.128807 
L 354.817124 -284.813246 
L 358.352895 -290.51711 
L 361.863677 -287.464851 
L 365.414794 -262.864661 
L 368.94649 -284.398022 
L 372.459174 -275.284952 
L 375.99671 -262.398445 
L 379.55 -263.228893 
L 383.080202 -271.249268 
L 386.620591 -263.563986 
L 390.129743 -273.849881 
L 393.648673 -273.150556 
L 397.18879 -236.122791 
L 400.707449 -207.115402 
L 404.2147 -212.651719 
L 407.740285 -207.807442 
L 411.257721 -220.118463 
L 414.805308 -218.814515 
L 418.353029 -214.21063 
L 421.902381 -217.219181 
L 425.443312 -215.827817 
L 428.941872 -221.626381 
L 432.460802 -226.987868 
L 435.968596 -230.032842 
L 439.501379 -227.774608 
L 443.031174 -223.738924 
L 446.573871 -219.040338 
L 450.094024 -226.120997 
L 453.629387 -232.859278 
L 457.176974 -236.924101 
L 460.705546 -227.614346 
L 464.244169 -243.698805 
L 467.767174 -235.255921 
L 471.281623 -238.373742 
L 474.794713 -233.405625 
L 478.324916 -244.27429 
L 481.849415 -229.595765 
L 485.387087 -240.406153 
L 488.903573 -236.589008 
L 492.4278 -223.207146 
L 495.947138 -234.104949 
L 499.479785 -234.527458 
L 503.001024 -242.220025 
L 506.535437 -241.192893 
L 510.056404 -239.896229 
L 513.589187 -243.421989 
L 517.113143 -237.630709 
L 520.631801 -242.846503 
L 524.146522 -246.401402 
L 527.675638 -252.11255 
L 531.184654 -245.148446 
L 534.71445 -249.701338 
L 538.234467 -253.533053 
L 541.764533 -252.666182 
L 545.287538 -253.985792 
L 548.811222 -256.680012 
L 552.358536 -261.801106 
L 555.882628 -253.962846 
L 559.413373 -268.000324 
L 562.944798 -261.954083 
L 566.456667 -272.596925 
L 570.008191 -264.175894 
L 573.54953 -257.044244 
L 577.086251 -277.404779 
L 580.618491 -279.313352 
L 584.149644 -270.498952 
L 587.681205 -278.315358 
L 591.208556 -278.031257 
L 594.726535 -273.813458 
L 598.275887 -286.051633 
L 601.817362 -273.930012 
L 605.348379 -287.246312 
L 608.882384 -276.268377 
L 612.399278 -285.927794 
L 615.910196 -273.012148 
L 619.451399 -279.189513 
L 622.972366 -278.504758 
L 626.503248 -283.990083 
L 630.050426 -276.399501 
L 633.586876 -300.001696 
L 637.1164 -296.548782 
L 640.650133 -294.931595 
L 644.165125 -297.524922 
L 647.699266 -291.500535 
L 651.233 -316.902033 
L 654.746498 -303.316202 
L 658.25728 -315.226569 
L 661.793051 -320.267531 
L 665.331266 -308.808811 
L 668.854271 -317.382819 
L 672.374695 -324.834993 
L 675.915491 -322.460204 
L 679.449768 -307.104208 
L 682.94792 -317.703342 
L 686.480974 -332.906361 
L 690.010769 -327.340905 
L 693.520057 -323.851568 
L 697.059088 -331.420297 
L 700.586438 -336.432121 
L 704.115011 -338.049309 
L 707.638695 -337.867193 
L 711.157897 -339.003595 
L 714.679136 -336.978468 
L 718.214092 -334.851357 
L 721.750406 -326.612442 
L 725.301387 -330.378595 
L 728.80307 -336.869199 
L 732.336125 -335.033473 
L 735.862253 -332.818946 
L 739.398974 -346.025977 
L 742.92551 -330.028933 
L 746.434934 -338.559233 
L 749.965408 -342.376378 
L 753.509599 -337.204292 
L 757.033555 -347.614025 
L 760.555201 -353.842383 
L 764.073045 -329.613709 
L 767.591025 -353.266897 
L 771.119326 -350.462315 
L 774.667727 -351.081508 
L 774.667727 -370.210942 
L 774.667727 -370.210942 
L 771.119326 -419.688137 
L 767.591025 -375.033366 
L 764.073045 -363.39253 
L 760.555201 -383.614658 
L 757.033555 -377.626693 
L 753.509599 -365.694473 
L 749.965408 -373.015524 
L 746.434934 -368.987124 
L 742.92551 -362.409105 
L 739.398974 -377.947217 
L 735.862253 -368.87057 
L 732.336125 -364.128278 
L 728.80307 -369.132817 
L 725.301387 -367.858007 
L 721.750406 -355.780094 
L 718.214092 -370.108957 
L 714.679136 -375.288328 
L 711.157897 -366.233535 
L 707.638695 -367.260668 
L 704.115011 -375.047935 
L 700.586438 -372.272492 
L 697.059088 -369.001694 
L 693.520057 -366.277243 
L 690.010769 -367.865292 
L 686.480974 -372.614869 
L 682.94792 -354.38873 
L 679.449768 -345.902138 
L 675.915491 -347.283789 
L 672.374695 -359.728362 
L 668.854271 -354.898654 
L 665.331266 -346.259085 
L 661.793051 -362.358113 
L 658.25728 -356.778088 
L 654.746498 -345.297514 
L 651.233 -355.627116 
L 647.699266 -330.174626 
L 644.165125 -337.524815 
L 640.650133 -333.634824 
L 637.1164 -338.653933 
L 633.586876 -344.561766 
L 630.050426 -315.3067 
L 626.503248 -325.862126 
L 622.972366 -320.427793 
L 619.451399 -318.72319 
L 615.910196 -314.039174 
L 612.399278 -328.659423 
L 608.882384 -314.476252 
L 605.348379 -322.161535 
L 601.817362 -311.1836 
L 598.275887 -320.864871 
L 594.726535 -297.507925 
L 591.208556 -311.052477 
L 587.681205 -311.48227 
L 584.149644 -301.203659 
L 580.618491 -310.848507 
L 577.086251 -305.552582 
L 573.54953 -288.521122 
L 570.008191 -293.722346 
L 566.456667 -305.618144 
L 562.944798 -298.1514 
L 559.413373 -298.610332 
L 555.882628 -292.046882 
L 552.358536 -297.313668 
L 548.811222 -297.634192 
L 545.287538 -286.415864 
L 541.764533 -285.155624 
L 538.234467 -293.481954 
L 534.71445 -285.32317 
L 531.184654 -284.179483 
L 527.675638 -289.453554 
L 524.146522 -284.652984 
L 520.631801 -271.373107 
L 517.113143 -266.252014 
L 513.589187 -275.073698 
L 510.056404 -279.102098 
L 506.535437 -281.40404 
L 503.001024 -281.98681 
L 499.479785 -280.682862 
L 495.947138 -280.151084 
L 492.4278 -260.366034 
L 488.903573 -278.344496 
L 485.387087 -285.053639 
L 481.849415 -266.60896 
L 478.324916 -284.798677 
L 474.794713 -276.384931 
L 471.281623 -279.597452 
L 467.767174 -282.336472 
L 464.244169 -276.931278 
L 460.705546 -269.595658 
L 457.176974 -279.007397 
L 453.629387 -278.06768 
L 450.094024 -259.841541 
L 446.573871 -250.619201 
L 443.031174 -261.189197 
L 439.501379 -263.418293 
L 435.968596 -270.382398 
L 432.460802 -265.800367 
L 428.941872 -263.221608 
L 425.443312 -258.625008 
L 421.902381 -249.6722 
L 418.353029 -256.680012 
L 414.805308 -259.346186 
L 411.257721 -258.523023 
L 407.740285 -245.913332 
L 404.2147 -253.052267 
L 400.707449 -254.829717 
L 397.18879 -272.045721 
L 393.648673 -322.671459 
L 390.129743 -332.14876 
L 386.620591 -319.866877 
L 383.080202 -320.697324 
L 379.55 -322.336366 
L 375.99671 -323.829715 
L 372.459174 -339.091011 
L 368.94649 -349.223928 
L 365.414794 -329.679271 
L 361.863677 -361.243565 
L 358.352895 -370.123526 
L 354.817124 -362.508662 
L 351.28244 -380.882922 
L 347.744768 -397.105789 
L 344.216466 -412.571055 
L 340.697536 -422.019218 
L 337.142752 -433.805746 
L 333.609697 -439.298356 
L 330.079359 -437.193098 
L 326.548477 -467.569997 
L 323.002385 -480.791598 
L 319.473677 -484.907412 
L 315.936276 -495.368138 
L 312.409333 -498.515098 
L 308.866093 -499.294553 
L 305.316198 -494.559545 
L 301.753537 -516.515414 
L 298.200519 -500.911741 
L 294.668007 -536.016364 
L 291.143373 -501.341534 
L 287.6148 -516.391575 
L 284.08256 -519.888197 
L 280.552222 -513.142631 
L 277.029353 -496.271432 
L 273.491953 -509.573163 
L 269.964602 -503.738176 
L 266.439696 -482.131969 
L 262.912617 -470.804372 
L 259.376031 -462.885982 
L 255.850582 -446.728676 
L 252.317799 -451.696793 
L 248.774831 -438.766578 
L 245.240282 -418.704712 
L 241.694326 -407.537377 
L 238.166704 -377.051208 
L 234.633242 -353.106635 
L 231.092853 -346.477806 
L 227.579219 -332.82623 
L 224.056486 -306.317468 
L 220.533481 -287.304589 
L 217.034107 -283.924521 
L 213.486929 -261.174628 
L 209.971393 -244.245152 
L 206.453685 -231.904992 
L 202.919544 -218.464853 
L 199.391786 -211.588164 
L 195.840669 -200.29699 
L 192.311417 -194.920935 
L 188.772794 -175.274292 
L 185.250876 -187.366775 
L 181.722303 -181.466226 
L 178.173495 -179.411961 
L 174.649268 -177.56895 
L 171.125856 -175.835209 
L 167.596468 -178.588798 
L 164.062599 -186.733012 
L 160.525334 -185.188671 
L 156.994045 -170.313461 
L 153.46425 -178.304698 
L 149.942196 -179.411961 
L 146.413894 -174.407422 
L 142.898631 -183.586053 
L 139.388528 -184.445639 
L 135.848954 -170.998216 
L 132.33016 -173.904782 
L 128.79792 -178.115297 
L 125.258754 -176.942472 
L 121.722848 -173.64982 
L 118.214646 -169.44659 
L 114.694901 -170.036645 
L 111.154784 -160.996421 
L 107.622273 -131.770493 
z
" id="m10463c701a" style="stroke:#1f77b4;stroke-opacity:0.2;"/>
    </defs>
    <g clip-path="url(#p80c2fd0b02)">
     <use style="fill:#1f77b4;fill-opacity:0.2;stroke:#1f77b4;stroke-opacity:0.2;" x="0" xlink:href="#m10463c701a" y="576"/>
    </g>
   </g>
   <g id="PolyCollection_3">
    <defs>
     <path d="M 107.622273 -85.513104 
L 107.622273 -81.943636 
L 111.154784 -99.441313 
L 114.694901 -103.848513 
L 118.214646 -102.595557 
L 121.722848 -106.419987 
L 125.258754 -108.925899 
L 128.79792 -106.959049 
L 132.33016 -106.988188 
L 135.848954 -104.737238 
L 139.388528 -108.962322 
L 142.898631 -109.326554 
L 146.413894 -108.372267 
L 149.942196 -109.625223 
L 153.46425 -108.576237 
L 156.994045 -108.940468 
L 160.525334 -118.053538 
L 164.062599 -121.368044 
L 167.596468 -124.493149 
L 171.125856 -126.9335 
L 174.649268 -132.469817 
L 178.173495 -141.961688 
L 181.722303 -146.973512 
L 185.250876 -151.417135 
L 188.772794 -157.827608 
L 192.311417 -167.29034 
L 195.840669 -175.747793 
L 199.391786 -184.044985 
L 202.919544 -195.547413 
L 206.453685 -203.618781 
L 209.971393 -215.026508 
L 213.486929 -217.007927 
L 217.034107 -230.025558 
L 220.533481 -235.765845 
L 224.056486 -244.988184 
L 227.579219 -252.199966 
L 231.092853 -263.614978 
L 234.633242 -267.337423 
L 238.166704 -272.677056 
L 241.694326 -275.182968 
L 245.240282 -279.961684 
L 248.774831 -285.578132 
L 252.317799 -290.32771 
L 255.850582 -292.950176 
L 259.376031 -296.68719 
L 262.912617 -295.070003 
L 266.439696 -299.542764 
L 269.964602 -306.018799 
L 273.491953 -310.498845 
L 277.029353 -315.896754 
L 280.552222 -327.93096 
L 284.08256 -329.555432 
L 287.6148 -330.517003 
L 291.143373 -322.125112 
L 294.668007 -325.570741 
L 298.200519 -324.762147 
L 301.753537 -327.085943 
L 305.316198 -312.698803 
L 308.866093 -299.63018 
L 312.409333 -308.794242 
L 315.936276 -305.494305 
L 319.473677 -295.528934 
L 323.002385 -300.766582 
L 326.548477 -298.420931 
L 330.079359 -290.81578 
L 333.609697 -291.165442 
L 337.142752 -286.313879 
L 340.697536 -294.312401 
L 344.216466 -285.257608 
L 347.744768 -283.946375 
L 351.28244 -281.870256 
L 354.817124 -267.949332 
L 358.352895 -284.711261 
L 361.863677 -280.813985 
L 365.414794 -277.696164 
L 368.94649 -288.419137 
L 372.459174 -283.625852 
L 375.99671 -283.268905 
L 379.55 -283.006658 
L 383.080202 -284.419876 
L 386.620591 -277.681595 
L 390.129743 -286.219179 
L 393.648673 -289.948909 
L 397.18879 -287.253597 
L 400.707449 -285.461578 
L 404.2147 -288.419137 
L 407.740285 -284.805961 
L 411.257721 -290.684656 
L 414.805308 -289.606531 
L 418.353029 -283.76426 
L 421.902381 -287.799944 
L 425.443312 -289.213161 
L 428.941872 -290.131025 
L 432.460802 -290.058178 
L 435.968596 -295.266687 
L 439.501379 -279.204082 
L 443.031174 -288.375429 
L 446.573871 -281.40404 
L 450.094024 -279.932545 
L 453.629387 -290.12374 
L 457.176974 -289.861493 
L 460.705546 -285.876802 
L 464.244169 -282.416603 
L 467.767174 -288.739661 
L 471.281623 -289.366139 
L 474.794713 -290.269433 
L 478.324916 -291.274711 
L 481.849415 -286.01521 
L 485.387087 -289.562824 
L 488.903573 -286.852942 
L 492.4278 -283.705983 
L 495.947138 -290.954188 
L 499.479785 -289.759509 
L 503.001024 -289.737655 
L 506.535437 -288.113183 
L 510.056404 -287.056912 
L 513.589187 -289.82507 
L 517.113143 -290.371417 
L 520.631801 -278.847136 
L 524.146522 -294.771333 
L 527.675638 -292.615083 
L 531.184654 -288.739661 
L 534.71445 -288.608537 
L 538.234467 -292.228998 
L 541.764533 -289.511831 
L 545.287538 -290.691941 
L 548.811222 -296.767321 
L 552.358536 -293.715062 
L 555.882628 -291.340273 
L 559.413373 -289.2423 
L 562.944798 -289.023761 
L 566.456667 -296.614344 
L 570.008191 -292.855476 
L 573.54953 -289.621101 
L 577.086251 -289.184023 
L 580.618491 -289.82507 
L 584.149644 -291.937612 
L 587.681205 -297.743461 
L 591.208556 -296.075281 
L 594.726535 -294.662063 
L 598.275887 -292.950176 
L 601.817362 -291.617089 
L 605.348379 -296.723613 
L 608.882384 -292.068736 
L 612.399278 -293.729631 
L 615.910196 -283.16692 
L 619.451399 -291.180011 
L 622.972366 -293.795193 
L 626.503248 -295.499796 
L 630.050426 -286.102625 
L 633.586876 -300.715589 
L 637.1164 -295.528934 
L 640.650133 -297.779884 
L 644.165125 -297.211683 
L 647.699266 -293.717976 
L 651.233 -302.128807 
L 654.746498 -290.269433 
L 658.25728 -299.906996 
L 661.793051 -302.529462 
L 665.331266 -297.189829 
L 668.854271 -295.827604 
L 672.374695 -302.442046 
L 675.915491 -299.950703 
L 679.449768 -298.0567 
L 682.94792 -295.50708 
L 686.480974 -307.832671 
L 690.010769 -304.241349 
L 693.520057 -305.559867 
L 697.059088 -301.870931 
L 700.586438 -301.057967 
L 704.115011 -301.28379 
L 707.638695 -307.748534 
L 711.157897 -304.423465 
L 714.679136 -307.737971 
L 718.214092 -299.360649 
L 721.750406 -293.795193 
L 725.301387 -305.363182 
L 728.80307 -305.865821 
L 732.336125 -306.637992 
L 735.862253 -302.828132 
L 739.398974 -310.054483 
L 742.92551 -300.154673 
L 746.434934 -303.512887 
L 749.965408 -308.109487 
L 753.509599 -311.069778 
L 757.033555 -313.572958 
L 760.555201 -315.503385 
L 764.073045 -307.140631 
L 767.591025 -306.57243 
L 771.119326 -310.921353 
L 774.667727 -311.169031 
L 774.667727 -323.531045 
L 774.667727 -323.531045 
L 771.119326 -323.472768 
L 767.591025 -324.040969 
L 764.073045 -308.007502 
L 760.555201 -327.705137 
L 757.033555 -320.522493 
L 753.509599 -316.683494 
L 749.965408 -317.506657 
L 746.434934 -305.181066 
L 742.92551 -308.306172 
L 739.398974 -323.203236 
L 735.862253 -313.13588 
L 732.336125 -313.660374 
L 728.80307 -318.482797 
L 725.301387 -309.544559 
L 721.750406 -300.934128 
L 718.214092 -315.124584 
L 714.679136 -320.267531 
L 711.157897 -317.368249 
L 707.638695 -316.56694 
L 704.115011 -317.965589 
L 700.586438 -313.405412 
L 697.059088 -311.212739 
L 693.520057 -310.527983 
L 690.010769 -312.676949 
L 686.480974 -314.243144 
L 682.94792 -308.255179 
L 679.449768 -299.076548 
L 675.915491 -308.721396 
L 672.374695 -311.795509 
L 668.854271 -306.994939 
L 665.331266 -303.94268 
L 661.793051 -309.865082 
L 658.25728 -308.357164 
L 654.746498 -293.751485 
L 651.233 -313.820635 
L 647.699266 -295.158693 
L 644.165125 -301.779145 
L 640.650133 -303.782418 
L 637.1164 -303.491033 
L 633.586876 -311.008769 
L 630.050426 -287.603259 
L 626.503248 -302.602308 
L 622.972366 -298.282524 
L 619.451399 -294.43624 
L 615.910196 -286.634403 
L 612.399278 -303.272494 
L 608.882384 -301.97583 
L 605.348379 -305.734698 
L 601.817362 -296.723613 
L 598.275887 -307.461155 
L 594.726535 -297.430222 
L 591.208556 -303.877118 
L 587.681205 -305.086366 
L 584.149644 -298.770594 
L 580.618491 -301.917553 
L 577.086251 -303.651294 
L 573.54953 -295.587211 
L 570.008191 -299.943419 
L 566.456667 -306.485015 
L 562.944798 -299.885142 
L 559.413373 -300.336789 
L 555.882628 -298.311662 
L 552.358536 -302.631447 
L 548.811222 -304.285057 
L 545.287538 -295.90045 
L 541.764533 -297.131552 
L 538.234467 -304.656573 
L 534.71445 -298.318947 
L 531.184654 -298.865294 
L 527.675638 -303.221501 
L 524.146522 -301.961261 
L 520.631801 -286.707249 
L 517.113143 -294.319686 
L 513.589187 -296.964006 
L 510.056404 -293.824331 
L 506.535437 -300.912274 
L 503.001024 -300.329504 
L 499.479785 -297.728892 
L 495.947138 -298.362654 
L 492.4278 -291.325704 
L 488.903573 -296.694475 
L 485.387087 -300.569897 
L 481.849415 -290.888626 
L 478.324916 -299.885142 
L 474.794713 -293.030307 
L 471.281623 -297.17526 
L 467.767174 -298.792448 
L 464.244169 -289.169454 
L 460.705546 -293.190568 
L 457.176974 -298.581193 
L 453.629387 -300.671882 
L 450.094024 -287.188035 
L 446.573871 -286.546988 
L 443.031174 -293.226992 
L 439.501379 -286.940357 
L 435.968596 -303.002963 
L 432.460802 -298.799732 
L 428.941872 -297.277245 
L 425.443312 -295.361388 
L 421.902381 -293.642215 
L 418.353029 -293.656785 
L 414.805308 -300.671882 
L 411.257721 -301.276506 
L 407.740285 -290.225725 
L 404.2147 -298.107692 
L 400.707449 -294.006447 
L 397.18879 -295.851886 
L 393.648673 -300.985121 
L 390.129743 -300.161958 
L 386.620591 -280.845309 
L 383.080202 -293.7442 
L 379.55 -291.485965 
L 375.99671 -285.461578 
L 372.459174 -296.840167 
L 368.94649 -299.149394 
L 365.414794 -285.031785 
L 361.863677 -293.095868 
L 358.352895 -293.736916 
L 354.817124 -270.775768 
L 351.28244 -288.127752 
L 347.744768 -292.884614 
L 344.216466 -290.502541 
L 340.697536 -297.371945 
L 337.142752 -290.61181 
L 333.609697 -296.883875 
L 330.079359 -294.334255 
L 326.548477 -302.959255 
L 323.002385 -303.818841 
L 319.473677 -308.371734 
L 315.936276 -309.085627 
L 312.409333 -311.831932 
L 308.866093 -311.569685 
L 305.316198 -323.873422 
L 301.753537 -328.732269 
L 298.200519 -330.786534 
L 294.668007 -338.945318 
L 291.143373 -333.212316 
L 287.6148 -333.948063 
L 284.08256 -338.340694 
L 280.552222 -345.545191 
L 277.029353 -333.935922 
L 273.491953 -335.317573 
L 269.964602 -326.306488 
L 266.439696 -313.019326 
L 262.912617 -304.445319 
L 259.376031 -303.563879 
L 255.850582 -302.383769 
L 252.317799 -303.010247 
L 248.774831 -298.632186 
L 245.240282 -291.063457 
L 241.694326 -287.595974 
L 238.166704 -283.596713 
L 234.633242 -278.140527 
L 231.092853 -277.659741 
L 227.579219 -261.050789 
L 224.056486 -260.030941 
L 220.533481 -251.777457 
L 217.034107 -250.713902 
L 213.486929 -235.918822 
L 209.971393 -233.798995 
L 206.453685 -222.500537 
L 202.919544 -214.4146 
L 199.391786 -206.809448 
L 195.840669 -196.567261 
L 192.311417 -186.434343 
L 188.772794 -169.067789 
L 185.250876 -169.35189 
L 181.722303 -159.350095 
L 178.173495 -158.002439 
L 174.649268 -147.009935 
L 171.125856 -142.478896 
L 167.596468 -136.359809 
L 164.062599 -137.940573 
L 160.525334 -130.146021 
L 156.994045 -118.505185 
L 153.46425 -119.758141 
L 149.942196 -121.724991 
L 146.413894 -116.480058 
L 142.898631 -122.504446 
L 139.388528 -122.329615 
L 135.848954 -114.025139 
L 132.33016 -116.582043 
L 128.79792 -119.67801 
L 125.258754 -118.2138 
L 121.722848 -115.707888 
L 118.214646 -113.799315 
L 114.694901 -115.496634 
L 111.154784 -107.24315 
L 107.622273 -85.513104 
z
" id="m22a9b8a95a" style="stroke:#ff7f0e;stroke-opacity:0.2;"/>
    </defs>
    <g clip-path="url(#p80c2fd0b02)">
     <use style="fill:#ff7f0e;fill-opacity:0.2;stroke:#ff7f0e;stroke-opacity:0.2;" x="0" xlink:href="#m22a9b8a95a" y="576"/>
    </g>
   </g>
   <g id="PolyCollection_4">
    <defs>
     <path d="M 107.622273 -98.574442 
L 107.622273 -86.015744 
L 111.154784 -111.927166 
L 114.694901 -122.001807 
L 118.214646 -120.734281 
L 121.722848 -123.997795 
L 125.258754 -125.644121 
L 128.79792 -128.026194 
L 132.33016 -123.604425 
L 135.848954 -121.433606 
L 139.388528 -129.956621 
L 142.898631 -129.76722 
L 146.413894 -118.446908 
L 149.942196 -127.931494 
L 153.46425 -125.462005 
L 156.994045 -122.628285 
L 160.525334 -135.012153 
L 164.062599 -139.433922 
L 167.596468 -135.194268 
L 171.125856 -138.494205 
L 174.649268 -143.433183 
L 178.173495 -152.00719 
L 181.722303 -154.600518 
L 185.250876 -164.281788 
L 188.772794 -155.190573 
L 192.311417 -180.912595 
L 195.840669 -192.604423 
L 199.391786 -205.877015 
L 202.919544 -211.762995 
L 206.453685 -217.53242 
L 209.971393 -229.435503 
L 213.486929 -231.657314 
L 217.034107 -243.480266 
L 220.533481 -237.244624 
L 224.056486 -251.609911 
L 227.579219 -256.701866 
L 231.092853 -273.441942 
L 234.633242 -269.355265 
L 238.166704 -281.586156 
L 241.694326 -284.492722 
L 245.240282 -289.978047 
L 248.774831 -302.000112 
L 252.317799 -303.403617 
L 255.850582 -297.554061 
L 259.376031 -301.065252 
L 262.912617 -301.997684 
L 266.439696 -311.540547 
L 269.964602 -320.741032 
L 273.491953 -318.300682 
L 277.029353 -319.641053 
L 280.552222 -328.790546 
L 284.08256 -326.415758 
L 287.6148 -324.507185 
L 291.143373 -324.463477 
L 294.668007 -330.028933 
L 298.200519 -317.171564 
L 301.753537 -321.993988 
L 305.316198 -305.975091 
L 308.866093 -306.929377 
L 312.409333 -314.243144 
L 315.936276 -315.255707 
L 319.473677 -310.957777 
L 323.002385 -322.307227 
L 326.548477 -321.345656 
L 330.079359 -305.749267 
L 333.609697 -315.991455 
L 337.142752 -316.639787 
L 340.697536 -320.216539 
L 344.216466 -318.067574 
L 347.744768 -320.857586 
L 351.28244 -315.190146 
L 354.817124 -303.083094 
L 358.352895 -320.347662 
L 361.863677 -320.872155 
L 365.414794 -300.562612 
L 368.94649 -326.197219 
L 372.459174 -321.702603 
L 375.99671 -309.471712 
L 379.55 -317.14971 
L 383.080202 -322.270804 
L 386.620591 -313.165019 
L 390.129743 -327.421036 
L 393.648673 -327.559444 
L 397.18879 -323.203236 
L 400.707449 -319.706615 
L 404.2147 -325.038963 
L 407.740285 -315.211999 
L 411.257721 -329.642848 
L 414.805308 -331.165335 
L 418.353029 -323.021121 
L 421.902381 -317.011303 
L 425.443312 -327.44289 
L 428.941872 -327.756129 
L 432.460802 -326.481319 
L 435.968596 -329.635563 
L 439.501379 -320.908579 
L 443.031174 -318.351674 
L 446.573871 -312.196163 
L 450.094024 -314.053744 
L 453.629387 -336.44669 
L 457.176974 -334.479841 
L 460.705546 -326.051526 
L 464.244169 -328.768692 
L 467.767174 -333.51827 
L 471.281623 -331.223612 
L 474.794713 -328.92167 
L 478.324916 -337.64137 
L 481.849415 -316.821902 
L 485.387087 -339.360542 
L 488.903573 -336.250006 
L 492.4278 -316.785479 
L 495.947138 -334.873211 
L 499.479785 -334.108325 
L 503.001024 -335.987759 
L 506.535437 -337.010035 
L 510.056404 -333.744093 
L 513.589187 -326.707143 
L 517.113143 -327.843545 
L 520.631801 -319.60463 
L 524.146522 -340.453236 
L 527.675638 -341.196268 
L 531.184654 -338.916179 
L 534.71445 -336.679799 
L 538.234467 -345.151821 
L 541.764533 -336.155305 
L 545.287538 -333.299731 
L 548.811222 -343.592911 
L 552.358536 -343.541918 
L 555.882628 -340.620782 
L 559.413373 -341.174414 
L 562.944798 -338.836049 
L 566.456667 -347.949118 
L 570.008191 -333.350724 
L 573.54953 -324.390631 
L 577.086251 -345.55976 
L 580.618491 -344.131973 
L 584.149644 -338.821479 
L 587.681205 -347.650449 
L 591.208556 -348.087526 
L 594.726535 -334.465272 
L 598.275887 -351.547725 
L 601.817362 -340.103574 
L 605.348379 -347.832564 
L 608.882384 -334.68381 
L 612.399278 -347.745149 
L 615.910196 -332.54213 
L 619.451399 -335.871205 
L 622.972366 -337.451969 
L 626.503248 -336.825491 
L 630.050426 -330.611703 
L 633.586876 -355.328447 
L 637.1164 -347.016686 
L 640.650133 -341.691623 
L 644.165125 -345.792868 
L 647.699266 -336.759929 
L 651.233 -359.182015 
L 654.746498 -340.47509 
L 658.25728 -355.991348 
L 661.793051 -355.816517 
L 665.331266 -350.651715 
L 668.854271 -353.958937 
L 672.374695 -357.054904 
L 675.915491 -358.315144 
L 679.449768 -335.120888 
L 682.94792 -355.488709 
L 686.480974 -360.675364 
L 690.010769 -361.003172 
L 693.520057 -355.867509 
L 697.059088 -359.917762 
L 700.586438 -360.485963 
L 704.115011 -360.580664 
L 707.638695 -360.267425 
L 711.157897 -360.471394 
L 714.679136 -366.379228 
L 718.214092 -362.263413 
L 721.750406 -347.774287 
L 725.301387 -353.339743 
L 728.80307 -360.296563 
L 732.336125 -360.740925 
L 735.862253 -357.142319 
L 739.398974 -367.493776 
L 742.92551 -352.13778 
L 746.434934 -354.410584 
L 749.965408 -360.223717 
L 753.509599 -356.93835 
L 757.033555 -366.648759 
L 760.555201 -372.847977 
L 764.073045 -348.233219 
L 767.591025 -368.120254 
L 771.119326 -369.642741 
L 774.667727 -364.85674 
L 774.667727 -389.260245 
L 774.667727 -389.260245 
L 771.119326 -396.559442 
L 767.591025 -399.334885 
L 764.073045 -378.712103 
L 760.555201 -399.218331 
L 757.033555 -393.813137 
L 753.509599 -386.929164 
L 749.965408 -388.961575 
L 746.434934 -390.491347 
L 742.92551 -376.51943 
L 739.398974 -396.726989 
L 735.862253 -382.492825 
L 732.336125 -385.8219 
L 728.80307 -385.384822 
L 725.301387 -382.769641 
L 721.750406 -381.538539 
L 718.214092 -391.889995 
L 714.679136 -389.15826 
L 711.157897 -387.78875 
L 707.638695 -386.827179 
L 704.115011 -389.988707 
L 700.586438 -385.253699 
L 697.059088 -384.627221 
L 693.520057 -384.175574 
L 690.010769 -383.396119 
L 686.480974 -388.757605 
L 682.94792 -377.058492 
L 679.449768 -369.584464 
L 675.915491 -383.345127 
L 672.374695 -382.59481 
L 668.854271 -377.786955 
L 665.331266 -372.083091 
L 661.793051 -385.530515 
L 658.25728 -379.848505 
L 654.746498 -368.596183 
L 651.233 -387.235118 
L 647.699266 -371.711575 
L 644.165125 -378.151187 
L 640.650133 -376.12606 
L 637.1164 -373.503594 
L 633.586876 -383.104734 
L 630.050426 -363.130283 
L 626.503248 -368.601039 
L 622.972366 -365.898442 
L 619.451399 -372.228784 
L 615.910196 -364.281255 
L 612.399278 -370.771858 
L 608.882384 -365.73818 
L 605.348379 -373.583725 
L 601.817362 -364.150131 
L 598.275887 -379.054481 
L 594.726535 -361.709781 
L 591.208556 -371.806276 
L 587.681205 -368.579185 
L 584.149644 -361.513096 
L 580.618491 -372.745993 
L 577.086251 -373.707564 
L 573.54953 -357.91449 
L 570.008191 -364.711048 
L 566.456667 -373.459886 
L 562.944798 -363.312399 
L 559.413373 -369.977834 
L 555.882628 -362.168713 
L 552.358536 -365.439511 
L 548.811222 -362.826757 
L 545.287538 -360.507817 
L 541.764533 -356.82908 
L 538.234467 -367.588476 
L 534.71445 -359.305854 
L 531.184654 -358.315144 
L 527.675638 -365.876588 
L 524.146522 -361.636935 
L 520.631801 -355.445001 
L 517.113143 -349.355052 
L 513.589187 -357.644958 
L 510.056404 -354.213899 
L 506.535437 -356.129756 
L 503.001024 -358.366137 
L 499.479785 -353.754967 
L 495.947138 -354.585415 
L 492.4278 -339.732058 
L 488.903573 -353.580136 
L 485.387087 -360.340271 
L 481.849415 -343.541918 
L 478.324916 -356.282733 
L 474.794713 -347.140525 
L 471.281623 -351.249055 
L 467.767174 -354.330453 
L 464.244169 -355.954925 
L 460.705546 -344.292235 
L 457.176974 -353.893375 
L 453.629387 -349.690144 
L 450.094024 -343.30881 
L 446.573871 -333.008346 
L 443.031174 -341.086999 
L 439.501379 -347.220656 
L 435.968596 -351.088793 
L 432.460802 -347.235225 
L 428.941872 -343.869727 
L 425.443312 -344.073696 
L 421.902381 -334.045859 
L 418.353029 -339.659212 
L 414.805308 -348.626589 
L 411.257721 -346.397493 
L 407.740285 -338.311555 
L 404.2147 -342.208831 
L 400.707449 -339.608219 
L 397.18879 -339.957881 
L 393.648673 -346.404777 
L 390.129743 -346.484908 
L 386.620591 -335.56525 
L 383.080202 -334.49441 
L 379.55 -334.341433 
L 375.99671 -331.281889 
L 372.459174 -340.431382 
L 368.94649 -344.416074 
L 365.414794 -317.113287 
L 361.863677 -336.993038 
L 358.352895 -336.832776 
L 354.817124 -324.339638 
L 351.28244 -328.797831 
L 347.744768 -332.301737 
L 344.216466 -329.730263 
L 340.697536 -330.888519 
L 337.142752 -325.789279 
L 333.609697 -329.69384 
L 330.079359 -320.289385 
L 326.548477 -330.808388 
L 323.002385 -333.044769 
L 319.473677 -328.8124 
L 315.936276 -328.448169 
L 312.409333 -323.589322 
L 308.866093 -326.022388 
L 305.316198 -319.8086 
L 301.753537 -326.590589 
L 298.200519 -324.689301 
L 294.668007 -332.527561 
L 291.143373 -330.786534 
L 287.6148 -335.827497 
L 284.08256 -342.106847 
L 280.552222 -344.765736 
L 277.029353 -334.348718 
L 273.491953 -339.061872 
L 269.964602 -338.056593 
L 266.439696 -325.09724 
L 262.912617 -332.877223 
L 259.376031 -330.458726 
L 255.850582 -328.12036 
L 252.317799 -326.35748 
L 248.774831 -322.489343 
L 245.240282 -314.104736 
L 241.694326 -305.59629 
L 238.166704 -303.957249 
L 234.633242 -295.070003 
L 231.092853 -299.112971 
L 227.579219 -283.472874 
L 224.056486 -284.500007 
L 220.533481 -268.102309 
L 217.034107 -276.071692 
L 213.486929 -261.71369 
L 209.971393 -261.152774 
L 206.453685 -253.744307 
L 202.919544 -246.452394 
L 199.391786 -239.830667 
L 195.840669 -226.244836 
L 192.311417 -215.703979 
L 188.772794 -193.806386 
L 185.250876 -195.321589 
L 181.722303 -182.631767 
L 178.173495 -173.722667 
L 174.649268 -165.053959 
L 171.125856 -160.289812 
L 167.596468 -158.454086 
L 164.062599 -160.573913 
L 160.525334 -153.624377 
L 156.994045 -139.506768 
L 153.46425 -145.946379 
L 149.942196 -145.225201 
L 146.413894 -140.169669 
L 142.898631 -149.493993 
L 139.388528 -149.923786 
L 135.848954 -138.29752 
L 132.33016 -141.459048 
L 128.79792 -146.594711 
L 125.258754 -142.435189 
L 121.722848 -141.801426 
L 118.214646 -137.962427 
L 114.694901 -139.171675 
L 111.154784 -130.146021 
L 107.622273 -98.574442 
z
" id="mcf2692829a" style="stroke:#ff7f0e;stroke-opacity:0.2;"/>
    </defs>
    <g clip-path="url(#p80c2fd0b02)">
     <use style="fill:#ff7f0e;fill-opacity:0.2;stroke:#ff7f0e;stroke-opacity:0.2;" x="0" xlink:href="#mcf2692829a" y="576"/>
    </g>
   </g>
   <g id="matplotlib.axis_1">
    <g id="xtick_1">
     <g id="line2d_1">
      <defs>
       <path d="M 0 0 
L 0 3.5 
" id="ma1c8bf6acb" style="stroke:#000000;stroke-width:0.8;"/>
      </defs>
      <g>
       <use style="stroke:#000000;stroke-width:0.8;" x="107.496378" xlink:href="#ma1c8bf6acb" y="516.76"/>
      </g>
     </g>
     <g id="text_1">
      <!-- 0 -->
      <g transform="translate(102.406378 535.9175)scale(0.16 -0.16)">
       <defs>
        <path d="M 2034 4250 
Q 1547 4250 1301 3770 
Q 1056 3291 1056 2328 
Q 1056 1369 1301 889 
Q 1547 409 2034 409 
Q 2525 409 2770 889 
Q 3016 1369 3016 2328 
Q 3016 3291 2770 3770 
Q 2525 4250 2034 4250 
z
M 2034 4750 
Q 2819 4750 3233 4129 
Q 3647 3509 3647 2328 
Q 3647 1150 3233 529 
Q 2819 -91 2034 -91 
Q 1250 -91 836 529 
Q 422 1150 422 2328 
Q 422 3509 836 4129 
Q 1250 4750 2034 4750 
z
" id="DejaVuSans-30" transform="scale(0.015625)"/>
       </defs>
       <use xlink:href="#DejaVuSans-30"/>
      </g>
     </g>
    </g>
    <g id="xtick_2">
     <g id="line2d_2">
      <g>
       <use style="stroke:#000000;stroke-width:0.8;" x="243.304741" xlink:href="#ma1c8bf6acb" y="516.76"/>
      </g>
     </g>
     <g id="text_2">
      <!-- 10 -->
      <g transform="translate(233.124741 535.9175)scale(0.16 -0.16)">
       <defs>
        <path d="M 794 531 
L 1825 531 
L 1825 4091 
L 703 3866 
L 703 4441 
L 1819 4666 
L 2450 4666 
L 2450 531 
L 3481 531 
L 3481 0 
L 794 0 
L 794 531 
z
" id="DejaVuSans-31" transform="scale(0.015625)"/>
       </defs>
       <use xlink:href="#DejaVuSans-31"/>
       <use x="63.623047" xlink:href="#DejaVuSans-30"/>
      </g>
     </g>
    </g>
    <g id="xtick_3">
     <g id="line2d_3">
      <g>
       <use style="stroke:#000000;stroke-width:0.8;" x="379.113104" xlink:href="#ma1c8bf6acb" y="516.76"/>
      </g>
     </g>
     <g id="text_3">
      <!-- 20 -->
      <g transform="translate(368.933104 535.9175)scale(0.16 -0.16)">
       <defs>
        <path d="M 1228 531 
L 3431 531 
L 3431 0 
L 469 0 
L 469 531 
Q 828 903 1448 1529 
Q 2069 2156 2228 2338 
Q 2531 2678 2651 2914 
Q 2772 3150 2772 3378 
Q 2772 3750 2511 3984 
Q 2250 4219 1831 4219 
Q 1534 4219 1204 4116 
Q 875 4013 500 3803 
L 500 4441 
Q 881 4594 1212 4672 
Q 1544 4750 1819 4750 
Q 2544 4750 2975 4387 
Q 3406 4025 3406 3419 
Q 3406 3131 3298 2873 
Q 3191 2616 2906 2266 
Q 2828 2175 2409 1742 
Q 1991 1309 1228 531 
z
" id="DejaVuSans-32" transform="scale(0.015625)"/>
       </defs>
       <use xlink:href="#DejaVuSans-32"/>
       <use x="63.623047" xlink:href="#DejaVuSans-30"/>
      </g>
     </g>
    </g>
    <g id="xtick_4">
     <g id="line2d_4">
      <g>
       <use style="stroke:#000000;stroke-width:0.8;" x="514.921467" xlink:href="#ma1c8bf6acb" y="516.76"/>
      </g>
     </g>
     <g id="text_4">
      <!-- 30 -->
      <g transform="translate(504.741467 535.9175)scale(0.16 -0.16)">
       <defs>
        <path d="M 2597 2516 
Q 3050 2419 3304 2112 
Q 3559 1806 3559 1356 
Q 3559 666 3084 287 
Q 2609 -91 1734 -91 
Q 1441 -91 1130 -33 
Q 819 25 488 141 
L 488 750 
Q 750 597 1062 519 
Q 1375 441 1716 441 
Q 2309 441 2620 675 
Q 2931 909 2931 1356 
Q 2931 1769 2642 2001 
Q 2353 2234 1838 2234 
L 1294 2234 
L 1294 2753 
L 1863 2753 
Q 2328 2753 2575 2939 
Q 2822 3125 2822 3475 
Q 2822 3834 2567 4026 
Q 2313 4219 1838 4219 
Q 1578 4219 1281 4162 
Q 984 4106 628 3988 
L 628 4550 
Q 988 4650 1302 4700 
Q 1616 4750 1894 4750 
Q 2613 4750 3031 4423 
Q 3450 4097 3450 3541 
Q 3450 3153 3228 2886 
Q 3006 2619 2597 2516 
z
" id="DejaVuSans-33" transform="scale(0.015625)"/>
       </defs>
       <use xlink:href="#DejaVuSans-33"/>
       <use x="63.623047" xlink:href="#DejaVuSans-30"/>
      </g>
     </g>
    </g>
    <g id="xtick_5">
     <g id="line2d_5">
      <g>
       <use style="stroke:#000000;stroke-width:0.8;" x="650.72983" xlink:href="#ma1c8bf6acb" y="516.76"/>
      </g>
     </g>
     <g id="text_5">
      <!-- 40 -->
      <g transform="translate(640.54983 535.9175)scale(0.16 -0.16)">
       <defs>
        <path d="M 2419 4116 
L 825 1625 
L 2419 1625 
L 2419 4116 
z
M 2253 4666 
L 3047 4666 
L 3047 1625 
L 3713 1625 
L 3713 1100 
L 3047 1100 
L 3047 0 
L 2419 0 
L 2419 1100 
L 313 1100 
L 313 1709 
L 2253 4666 
z
" id="DejaVuSans-34" transform="scale(0.015625)"/>
       </defs>
       <use xlink:href="#DejaVuSans-34"/>
       <use x="63.623047" xlink:href="#DejaVuSans-30"/>
      </g>
     </g>
    </g>
    <g id="xtick_6">
     <g id="line2d_6">
      <g>
       <use style="stroke:#000000;stroke-width:0.8;" x="786.538193" xlink:href="#ma1c8bf6acb" y="516.76"/>
      </g>
     </g>
     <g id="text_6">
      <!-- 50 -->
      <g transform="translate(776.358193 535.9175)scale(0.16 -0.16)">
       <defs>
        <path d="M 691 4666 
L 3169 4666 
L 3169 4134 
L 1269 4134 
L 1269 2991 
Q 1406 3038 1543 3061 
Q 1681 3084 1819 3084 
Q 2600 3084 3056 2656 
Q 3513 2228 3513 1497 
Q 3513 744 3044 326 
Q 2575 -91 1722 -91 
Q 1428 -91 1123 -41 
Q 819 9 494 109 
L 494 744 
Q 775 591 1075 516 
Q 1375 441 1709 441 
Q 2250 441 2565 725 
Q 2881 1009 2881 1497 
Q 2881 1984 2565 2268 
Q 2250 2553 1709 2553 
Q 1456 2553 1204 2497 
Q 953 2441 691 2322 
L 691 4666 
z
" id="DejaVuSans-35" transform="scale(0.015625)"/>
       </defs>
       <use xlink:href="#DejaVuSans-35"/>
       <use x="63.623047" xlink:href="#DejaVuSans-30"/>
      </g>
     </g>
    </g>
    <g id="text_7">
     <!-- Time [h] -->
     <g transform="translate(407.71625 555.4025)scale(0.16 -0.16)">
      <defs>
       <path d="M -19 4666 
L 3928 4666 
L 3928 4134 
L 2272 4134 
L 2272 0 
L 1638 0 
L 1638 4134 
L -19 4134 
L -19 4666 
z
" id="DejaVuSans-54" transform="scale(0.015625)"/>
       <path d="M 603 3500 
L 1178 3500 
L 1178 0 
L 603 0 
L 603 3500 
z
M 603 4863 
L 1178 4863 
L 1178 4134 
L 603 4134 
L 603 4863 
z
" id="DejaVuSans-69" transform="scale(0.015625)"/>
       <path d="M 3328 2828 
Q 3544 3216 3844 3400 
Q 4144 3584 4550 3584 
Q 5097 3584 5394 3201 
Q 5691 2819 5691 2113 
L 5691 0 
L 5113 0 
L 5113 2094 
Q 5113 2597 4934 2840 
Q 4756 3084 4391 3084 
Q 3944 3084 3684 2787 
Q 3425 2491 3425 1978 
L 3425 0 
L 2847 0 
L 2847 2094 
Q 2847 2600 2669 2842 
Q 2491 3084 2119 3084 
Q 1678 3084 1418 2786 
Q 1159 2488 1159 1978 
L 1159 0 
L 581 0 
L 581 3500 
L 1159 3500 
L 1159 2956 
Q 1356 3278 1631 3431 
Q 1906 3584 2284 3584 
Q 2666 3584 2933 3390 
Q 3200 3197 3328 2828 
z
" id="DejaVuSans-6d" transform="scale(0.015625)"/>
       <path d="M 3597 1894 
L 3597 1613 
L 953 1613 
Q 991 1019 1311 708 
Q 1631 397 2203 397 
Q 2534 397 2845 478 
Q 3156 559 3463 722 
L 3463 178 
Q 3153 47 2828 -22 
Q 2503 -91 2169 -91 
Q 1331 -91 842 396 
Q 353 884 353 1716 
Q 353 2575 817 3079 
Q 1281 3584 2069 3584 
Q 2775 3584 3186 3129 
Q 3597 2675 3597 1894 
z
M 3022 2063 
Q 3016 2534 2758 2815 
Q 2500 3097 2075 3097 
Q 1594 3097 1305 2825 
Q 1016 2553 972 2059 
L 3022 2063 
z
" id="DejaVuSans-65" transform="scale(0.015625)"/>
       <path id="DejaVuSans-20" transform="scale(0.015625)"/>
       <path d="M 550 4863 
L 1875 4863 
L 1875 4416 
L 1125 4416 
L 1125 -397 
L 1875 -397 
L 1875 -844 
L 550 -844 
L 550 4863 
z
" id="DejaVuSans-5b" transform="scale(0.015625)"/>
       <path d="M 3513 2113 
L 3513 0 
L 2938 0 
L 2938 2094 
Q 2938 2591 2744 2837 
Q 2550 3084 2163 3084 
Q 1697 3084 1428 2787 
Q 1159 2491 1159 1978 
L 1159 0 
L 581 0 
L 581 4863 
L 1159 4863 
L 1159 2956 
Q 1366 3272 1645 3428 
Q 1925 3584 2291 3584 
Q 2894 3584 3203 3211 
Q 3513 2838 3513 2113 
z
" id="DejaVuSans-68" transform="scale(0.015625)"/>
       <path d="M 1947 4863 
L 1947 -844 
L 622 -844 
L 622 -397 
L 1369 -397 
L 1369 4416 
L 622 4416 
L 622 4863 
L 1947 4863 
z
" id="DejaVuSans-5d" transform="scale(0.015625)"/>
      </defs>
      <use xlink:href="#DejaVuSans-54"/>
      <use x="57.958984" xlink:href="#DejaVuSans-69"/>
      <use x="85.742188" xlink:href="#DejaVuSans-6d"/>
      <use x="183.154297" xlink:href="#DejaVuSans-65"/>
      <use x="244.677734" xlink:href="#DejaVuSans-20"/>
      <use x="276.464844" xlink:href="#DejaVuSans-5b"/>
      <use x="315.478516" xlink:href="#DejaVuSans-68"/>
      <use x="378.857422" xlink:href="#DejaVuSans-5d"/>
     </g>
    </g>
   </g>
   <g id="matplotlib.axis_2">
    <g id="ytick_1">
     <g id="line2d_7">
      <defs>
       <path d="M 0 0 
L -3.5 0 
" id="m7550e69dfc" style="stroke:#000000;stroke-width:0.8;"/>
      </defs>
      <g>
       <use style="stroke:#000000;stroke-width:0.8;" x="74.27" xlink:href="#m7550e69dfc" y="491.222643"/>
      </g>
     </g>
     <g id="text_8">
      <!-- 200 -->
      <g transform="translate(36.73 497.301393)scale(0.16 -0.16)">
       <use xlink:href="#DejaVuSans-32"/>
       <use x="63.623047" xlink:href="#DejaVuSans-30"/>
       <use x="127.246094" xlink:href="#DejaVuSans-30"/>
      </g>
     </g>
    </g>
    <g id="ytick_2">
     <g id="line2d_8">
      <g>
       <use style="stroke:#000000;stroke-width:0.8;" x="74.27" xlink:href="#m7550e69dfc" y="418.376362"/>
      </g>
     </g>
     <g id="text_9">
      <!-- 210 -->
      <g transform="translate(36.73 424.455112)scale(0.16 -0.16)">
       <use xlink:href="#DejaVuSans-32"/>
       <use x="63.623047" xlink:href="#DejaVuSans-31"/>
       <use x="127.246094" xlink:href="#DejaVuSans-30"/>
      </g>
     </g>
    </g>
    <g id="ytick_3">
     <g id="line2d_9">
      <g>
       <use style="stroke:#000000;stroke-width:0.8;" x="74.27" xlink:href="#m7550e69dfc" y="345.53008"/>
      </g>
     </g>
     <g id="text_10">
      <!-- 220 -->
      <g transform="translate(36.73 351.60883)scale(0.16 -0.16)">
       <use xlink:href="#DejaVuSans-32"/>
       <use x="63.623047" xlink:href="#DejaVuSans-32"/>
       <use x="127.246094" xlink:href="#DejaVuSans-30"/>
      </g>
     </g>
    </g>
    <g id="ytick_4">
     <g id="line2d_10">
      <g>
       <use style="stroke:#000000;stroke-width:0.8;" x="74.27" xlink:href="#m7550e69dfc" y="272.683798"/>
      </g>
     </g>
     <g id="text_11">
      <!-- 230 -->
      <g transform="translate(36.73 278.762548)scale(0.16 -0.16)">
       <use xlink:href="#DejaVuSans-32"/>
       <use x="63.623047" xlink:href="#DejaVuSans-33"/>
       <use x="127.246094" xlink:href="#DejaVuSans-30"/>
      </g>
     </g>
    </g>
    <g id="ytick_5">
     <g id="line2d_11">
      <g>
       <use style="stroke:#000000;stroke-width:0.8;" x="74.27" xlink:href="#m7550e69dfc" y="199.837517"/>
      </g>
     </g>
     <g id="text_12">
      <!-- 240 -->
      <g transform="translate(36.73 205.916267)scale(0.16 -0.16)">
       <use xlink:href="#DejaVuSans-32"/>
       <use x="63.623047" xlink:href="#DejaVuSans-34"/>
       <use x="127.246094" xlink:href="#DejaVuSans-30"/>
      </g>
     </g>
    </g>
    <g id="ytick_6">
     <g id="line2d_12">
      <g>
       <use style="stroke:#000000;stroke-width:0.8;" x="74.27" xlink:href="#m7550e69dfc" y="126.991235"/>
      </g>
     </g>
     <g id="text_13">
      <!-- 250 -->
      <g transform="translate(36.73 133.069985)scale(0.16 -0.16)">
       <use xlink:href="#DejaVuSans-32"/>
       <use x="63.623047" xlink:href="#DejaVuSans-35"/>
       <use x="127.246094" xlink:href="#DejaVuSans-30"/>
      </g>
     </g>
    </g>
    <g id="ytick_7">
     <g id="line2d_13">
      <g>
       <use style="stroke:#000000;stroke-width:0.8;" x="74.27" xlink:href="#m7550e69dfc" y="54.144954"/>
      </g>
     </g>
     <g id="text_14">
      <!-- 260 -->
      <g transform="translate(36.73 60.223704)scale(0.16 -0.16)">
       <defs>
        <path d="M 2113 2584 
Q 1688 2584 1439 2293 
Q 1191 2003 1191 1497 
Q 1191 994 1439 701 
Q 1688 409 2113 409 
Q 2538 409 2786 701 
Q 3034 994 3034 1497 
Q 3034 2003 2786 2293 
Q 2538 2584 2113 2584 
z
M 3366 4563 
L 3366 3988 
Q 3128 4100 2886 4159 
Q 2644 4219 2406 4219 
Q 1781 4219 1451 3797 
Q 1122 3375 1075 2522 
Q 1259 2794 1537 2939 
Q 1816 3084 2150 3084 
Q 2853 3084 3261 2657 
Q 3669 2231 3669 1497 
Q 3669 778 3244 343 
Q 2819 -91 2113 -91 
Q 1303 -91 875 529 
Q 447 1150 447 2328 
Q 447 3434 972 4092 
Q 1497 4750 2381 4750 
Q 2619 4750 2861 4703 
Q 3103 4656 3366 4563 
z
" id="DejaVuSans-36" transform="scale(0.015625)"/>
       </defs>
       <use xlink:href="#DejaVuSans-32"/>
       <use x="63.623047" xlink:href="#DejaVuSans-36"/>
       <use x="127.246094" xlink:href="#DejaVuSans-30"/>
      </g>
     </g>
    </g>
    <g id="text_15">
     <!-- Biomass - 30 -->
     <g transform="translate(29.4025 318.8075)rotate(-90)scale(0.16 -0.16)">
      <defs>
       <path d="M 1259 2228 
L 1259 519 
L 2272 519 
Q 2781 519 3026 730 
Q 3272 941 3272 1375 
Q 3272 1813 3026 2020 
Q 2781 2228 2272 2228 
L 1259 2228 
z
M 1259 4147 
L 1259 2741 
L 2194 2741 
Q 2656 2741 2882 2914 
Q 3109 3088 3109 3444 
Q 3109 3797 2882 3972 
Q 2656 4147 2194 4147 
L 1259 4147 
z
M 628 4666 
L 2241 4666 
Q 2963 4666 3353 4366 
Q 3744 4066 3744 3513 
Q 3744 3084 3544 2831 
Q 3344 2578 2956 2516 
Q 3422 2416 3680 2098 
Q 3938 1781 3938 1306 
Q 3938 681 3513 340 
Q 3088 0 2303 0 
L 628 0 
L 628 4666 
z
" id="DejaVuSans-42" transform="scale(0.015625)"/>
       <path d="M 1959 3097 
Q 1497 3097 1228 2736 
Q 959 2375 959 1747 
Q 959 1119 1226 758 
Q 1494 397 1959 397 
Q 2419 397 2687 759 
Q 2956 1122 2956 1747 
Q 2956 2369 2687 2733 
Q 2419 3097 1959 3097 
z
M 1959 3584 
Q 2709 3584 3137 3096 
Q 3566 2609 3566 1747 
Q 3566 888 3137 398 
Q 2709 -91 1959 -91 
Q 1206 -91 779 398 
Q 353 888 353 1747 
Q 353 2609 779 3096 
Q 1206 3584 1959 3584 
z
" id="DejaVuSans-6f" transform="scale(0.015625)"/>
       <path d="M 2194 1759 
Q 1497 1759 1228 1600 
Q 959 1441 959 1056 
Q 959 750 1161 570 
Q 1363 391 1709 391 
Q 2188 391 2477 730 
Q 2766 1069 2766 1631 
L 2766 1759 
L 2194 1759 
z
M 3341 1997 
L 3341 0 
L 2766 0 
L 2766 531 
Q 2569 213 2275 61 
Q 1981 -91 1556 -91 
Q 1019 -91 701 211 
Q 384 513 384 1019 
Q 384 1609 779 1909 
Q 1175 2209 1959 2209 
L 2766 2209 
L 2766 2266 
Q 2766 2663 2505 2880 
Q 2244 3097 1772 3097 
Q 1472 3097 1187 3025 
Q 903 2953 641 2809 
L 641 3341 
Q 956 3463 1253 3523 
Q 1550 3584 1831 3584 
Q 2591 3584 2966 3190 
Q 3341 2797 3341 1997 
z
" id="DejaVuSans-61" transform="scale(0.015625)"/>
       <path d="M 2834 3397 
L 2834 2853 
Q 2591 2978 2328 3040 
Q 2066 3103 1784 3103 
Q 1356 3103 1142 2972 
Q 928 2841 928 2578 
Q 928 2378 1081 2264 
Q 1234 2150 1697 2047 
L 1894 2003 
Q 2506 1872 2764 1633 
Q 3022 1394 3022 966 
Q 3022 478 2636 193 
Q 2250 -91 1575 -91 
Q 1294 -91 989 -36 
Q 684 19 347 128 
L 347 722 
Q 666 556 975 473 
Q 1284 391 1588 391 
Q 1994 391 2212 530 
Q 2431 669 2431 922 
Q 2431 1156 2273 1281 
Q 2116 1406 1581 1522 
L 1381 1569 
Q 847 1681 609 1914 
Q 372 2147 372 2553 
Q 372 3047 722 3315 
Q 1072 3584 1716 3584 
Q 2034 3584 2315 3537 
Q 2597 3491 2834 3397 
z
" id="DejaVuSans-73" transform="scale(0.015625)"/>
       <path d="M 313 2009 
L 1997 2009 
L 1997 1497 
L 313 1497 
L 313 2009 
z
" id="DejaVuSans-2d" transform="scale(0.015625)"/>
      </defs>
      <use xlink:href="#DejaVuSans-42"/>
      <use x="68.603516" xlink:href="#DejaVuSans-69"/>
      <use x="96.386719" xlink:href="#DejaVuSans-6f"/>
      <use x="157.568359" xlink:href="#DejaVuSans-6d"/>
      <use x="254.980469" xlink:href="#DejaVuSans-61"/>
      <use x="316.259766" xlink:href="#DejaVuSans-73"/>
      <use x="368.359375" xlink:href="#DejaVuSans-73"/>
      <use x="420.458984" xlink:href="#DejaVuSans-20"/>
      <use x="452.246094" xlink:href="#DejaVuSans-2d"/>
      <use x="488.330078" xlink:href="#DejaVuSans-20"/>
      <use x="520.117188" xlink:href="#DejaVuSans-33"/>
      <use x="583.740234" xlink:href="#DejaVuSans-30"/>
     </g>
    </g>
   </g>
   <g id="line2d_14">
    <path clip-path="url(#p80c2fd0b02)" d="M 107.622273 466.576318 
L 111.154784 446.130795 
L 114.694901 438.464938 
L 118.214646 440.424503 
L 121.722848 436.527227 
L 125.258754 434.521526 
L 128.79792 434.477818 
L 132.33016 435.240276 
L 135.848954 436.323257 
L 139.388528 429.140614 
L 142.898631 428.346589 
L 146.413894 435.388397 
L 149.942196 431.088038 
L 153.46425 431.85778 
L 156.994045 435.145576 
L 160.525334 426.82653 
L 164.062599 423.995238 
L 167.596468 430.323152 
L 171.125856 430.891353 
L 174.649268 430.857358 
L 178.173495 426.253473 
L 181.722303 423.681999 
L 185.250876 416.341522 
L 188.772794 419.646315 
L 192.311417 405.04792 
L 195.840669 397.45491 
L 199.391786 384.131325 
L 202.919544 371.849442 
L 206.453685 358.419015 
L 209.971393 339.287154 
L 213.486929 321.721487 
L 217.034107 288.962514 
L 220.533481 275.148431 
L 224.056486 254.040007 
L 227.579219 239.604302 
L 231.092853 213.923559 
L 234.633242 207.175566 
L 238.166704 195.699848 
L 241.694326 186.307534 
L 245.240282 175.686546 
L 248.774831 158.944042 
L 252.317799 153.580128 
L 255.850582 152.254326 
L 259.376031 144.277658 
L 262.912617 141.405086 
L 266.439696 132.418283 
L 269.964602 124.405192 
L 273.491953 129.013934 
L 277.029353 123.0114 
L 280.552222 104.476878 
L 284.08256 107.288744 
L 287.6148 104.760978 
L 291.143373 108.029348 
L 294.668007 101.555742 
L 298.200519 101.956396 
L 301.753537 102.745564 
L 305.316198 100.637879 
L 308.866093 106.946367 
L 312.409333 97.311232 
L 315.936276 94.08657 
L 319.473677 96.50021 
L 323.002385 97.325801 
L 326.548477 95.492503 
L 330.079359 106.383022 
L 333.609697 107.206185 
L 337.142752 119.235534 
L 340.697536 119.339947 
L 344.216466 131.638828 
L 347.744768 133.649385 
L 351.28244 148.949533 
L 354.817124 173.807112 
L 358.352895 162.124997 
L 361.863677 172.585723 
L 365.414794 191.610743 
L 368.94649 182.740494 
L 372.459174 194.187074 
L 375.99671 209.178838 
L 379.55 212.483631 
L 383.080202 213.21695 
L 386.620591 229.39611 
L 390.129743 216.985531 
L 393.648673 219.268048 
L 397.18879 224.037052 
L 400.707449 224.041908 
L 404.2147 227.803204 
L 407.740285 231.766042 
L 411.257721 222.910362 
L 414.805308 229.058589 
L 418.353029 234.009707 
L 421.902381 233.458504 
L 425.443312 236.129534 
L 428.941872 228.002317 
L 432.460802 233.881012 
L 435.968596 224.221595 
L 439.501379 240.077803 
L 443.031174 232.632913 
L 446.573871 234.709032 
L 450.094024 237.448052 
L 453.629387 222.767098 
L 457.176974 223.879218 
L 460.705546 227.905189 
L 464.244169 228.021743 
L 467.767174 218.874678 
L 471.281623 219.263192 
L 474.794713 219.343323 
L 478.324916 211.866866 
L 481.849415 217.213783 
L 485.387087 206.000312 
L 488.903573 216.274066 
L 492.4278 218.279767 
L 495.947138 205.594801 
L 499.479785 207.782618 
L 503.001024 204.431689 
L 506.535437 197.807534 
L 510.056404 202.68095 
L 513.589187 201.622251 
L 517.113143 198.36845 
L 520.631801 207.653923 
L 524.146522 194.366761 
L 527.675638 204.846913 
L 531.184654 249.096172 
L 534.71445 269.723811 
L 538.234467 270.219166 
L 541.764533 277.702907 
L 545.287538 278.074423 
L 548.811222 272.028182 
L 552.358536 269.170179 
L 555.882628 275.179998 
L 559.413373 272.35599 
L 562.944798 268.927358 
L 566.456667 264.697418 
L 570.008191 268.805948 
L 573.54953 271.127316 
L 577.086251 264.833397 
L 580.618491 263.145792 
L 584.149644 263.539162 
L 587.681205 253.748622 
L 591.208556 256.621193 
L 594.726535 255.169124 
L 598.275887 247.260446 
L 601.817362 253.394103 
L 605.348379 249.336565 
L 608.882384 247.503267 
L 612.399278 242.974657 
L 615.910196 259.389352 
L 619.451399 249.785784 
L 622.972366 245.745243 
L 626.503248 246.221172 
L 630.050426 259.01298 
L 633.586876 241.750839 
L 637.1164 250.562811 
L 640.650133 247.236164 
L 644.165125 250.261713 
L 647.699266 254.566928 
L 651.233 237.523326 
L 654.746498 251.415112 
L 658.25728 240.126367 
L 661.793051 236.578753 
L 665.331266 238.92926 
L 668.854271 233.764458 
L 672.374695 227.613804 
L 675.915491 227.691507 
L 679.449768 230.940451 
L 682.94792 224.50084 
L 686.480974 216.567879 
L 690.010769 215.545603 
L 693.520057 213.35293 
L 697.059088 213.474341 
L 700.586438 210.213255 
L 704.115011 205.089734 
L 707.638695 202.559539 
L 711.157897 197.317035 
L 714.679136 193.645583 
L 718.214092 198.183906 
L 721.750406 205.293703 
L 725.301387 197.545287 
L 728.80307 189.175249 
L 732.336125 186.919443 
L 735.862253 188.077699 
L 739.398974 176.213468 
L 742.92551 187.541064 
L 746.434934 187.684329 
L 749.965408 175.878375 
L 753.509599 174.996935 
L 757.033555 167.044549 
L 760.555201 161.386821 
L 764.073045 174.035364 
L 767.591025 163.353671 
L 771.119326 161.787476 
L 774.667727 159.109161 
L 774.667727 159.109161 
" style="fill:none;stroke:#1f77b4;stroke-linecap:square;stroke-width:1.5;"/>
   </g>
   <g id="line2d_15">
    <path clip-path="url(#p80c2fd0b02)" d="M 107.622273 465.622032 
L 111.154784 435.54623 
L 114.694901 424.519731 
L 118.214646 424.645998 
L 121.722848 421.151805 
L 125.258754 419.896421 
L 128.79792 416.766459 
L 132.33016 419.954698 
L 135.848954 422.562595 
L 139.388528 412.050876 
L 142.898631 411.351552 
L 146.413894 420.92841 
L 149.942196 416.577058 
L 153.46425 417.419647 
L 156.994045 425.289474 
L 160.525334 410.861054 
L 164.062599 408.408562 
L 167.596468 417.028705 
L 171.125856 419.408351 
L 174.649268 418.543908 
L 178.173495 415.222118 
L 181.722303 413.534512 
L 185.250876 407.27216 
L 188.772794 418.509913 
L 192.311417 400.718423 
L 195.840669 393.829593 
L 199.391786 382.905079 
L 202.919544 377.048238 
L 206.453685 365.17915 
L 209.971393 351.911414 
L 213.486929 337.939497 
L 217.034107 315.485845 
L 220.533481 311.289899 
L 224.056486 283.525753 
L 227.579219 267.540851 
L 231.092853 242.557005 
L 234.633242 238.329492 
L 238.166704 215.620878 
L 241.694326 195.952382 
L 245.240282 178.945203 
L 248.774831 162.729621 
L 252.317799 148.602299 
L 255.850582 146.948688 
L 259.376031 132.316298 
L 262.912617 126.097654 
L 266.439696 118.519213 
L 269.964602 98.321367 
L 273.491953 97.537055 
L 277.029353 96.08013 
L 280.552222 86.758234 
L 284.08256 90.109163 
L 287.6148 81.884818 
L 291.143373 93.035155 
L 294.668007 70.353251 
L 298.200519 91.44225 
L 301.753537 85.998204 
L 305.316198 100.74472 
L 308.866093 97.600189 
L 312.409333 106.781248 
L 315.936276 106.030932 
L 319.473677 115.530087 
L 323.002385 120.43507 
L 326.548477 135.395268 
L 330.079359 164.949004 
L 333.609697 163.535786 
L 337.142752 174.0815 
L 340.697536 186.581922 
L 344.216466 196.600714 
L 347.744768 207.054155 
L 351.28244 222.958927 
L 354.817124 240.679999 
L 358.352895 233.798453 
L 361.863677 242.921236 
L 365.414794 269.920496 
L 368.94649 248.435699 
L 372.459174 258.675458 
L 375.99671 273.145158 
L 379.55 276.192561 
L 383.080202 273.247143 
L 386.620591 279.473072 
L 390.129743 269.06091 
L 393.648673 270.493554 
L 397.18879 317.982045 
L 400.707449 343.291271 
L 404.2147 341.19087 
L 407.740285 348.264244 
L 411.257721 336.81038 
L 414.805308 336.773957 
L 418.353029 341.535676 
L 421.902381 344.172711 
L 425.443312 337.762238 
L 428.941872 334.527863 
L 432.460802 331.434325 
L 435.968596 325.39294 
L 439.501379 331.720853 
L 443.031174 334.343319 
L 446.573871 342.448682 
L 450.094024 333.88196 
L 453.629387 320.325267 
L 457.176974 317.756221 
L 460.705546 326.529342 
L 464.244169 316.879637 
L 467.767174 317.321572 
L 471.281623 317.158882 
L 474.794713 320.959029 
L 478.324916 311.739118 
L 481.849415 328.19995 
L 485.387087 313.271318 
L 488.903573 319.295706 
L 492.4278 335.404447 
L 495.947138 319.159726 
L 499.479785 318.487112 
L 503.001024 315.175034 
L 506.535437 316.136605 
L 510.056404 318.050034 
L 513.589187 320.150436 
L 517.113143 326.060697 
L 520.631801 322.717053 
L 524.146522 312.212619 
L 527.675638 307.800563 
L 531.184654 313.939076 
L 534.71445 311.712408 
L 538.234467 305.136817 
L 541.764533 309.913105 
L 545.287538 310.233628 
L 548.811222 301.987429 
L 552.358536 299.908882 
L 555.882628 306.28536 
L 559.413373 297.37626 
L 562.944798 299.986585 
L 566.456667 290.684115 
L 570.008191 301.397374 
L 573.54953 306.47476 
L 577.086251 287.84311 
L 580.618491 285.939393 
L 584.149644 294.479406 
L 587.681205 285.97096 
L 591.208556 283.62531 
L 594.726535 290.339309 
L 598.275887 273.95618 
L 601.817362 284.883122 
L 605.348379 273.164584 
L 608.882384 280.024275 
L 612.399278 270.151176 
L 615.910196 280.650753 
L 619.451399 273.628372 
L 622.972366 274.721066 
L 626.503248 270.692667 
L 630.050426 276.110002 
L 633.586876 253.758334 
L 637.1164 258.476345 
L 640.650133 259.741442 
L 644.165125 258.631751 
L 647.699266 260.698157 
L 651.233 238.392625 
L 654.746498 248.491548 
L 661.793051 235.342794 
L 665.331266 251.410256 
L 668.854271 241.262769 
L 672.374695 235.342794 
L 675.915491 239.771848 
L 679.449768 251.162579 
L 682.94792 236.54233 
L 686.480974 226.535679 
L 690.010769 227.582237 
L 693.520057 231.829175 
L 697.059088 226.341422 
L 700.586438 222.213466 
L 704.115011 222.245033 
L 707.638695 224.563973 
L 711.157897 227.261714 
L 714.679136 220.707976 
L 718.214092 223.796659 
L 721.750406 232.822313 
L 725.301387 230.814184 
L 728.80307 226.827064 
L 732.336125 230.243555 
L 735.862253 230.299404 
L 739.398974 218.595434 
L 742.92551 231.571785 
L 746.434934 222.890937 
L 749.965408 220.805105 
L 753.509599 222.720962 
L 757.033555 213.117394 
L 760.555201 208.460088 
L 764.073045 232.535784 
L 767.591025 209.917014 
L 771.119326 201.750946 
L 774.667727 216.75728 
L 774.667727 216.75728 
" style="fill:none;stroke:#1f77b4;stroke-dasharray:6,2.25;stroke-dashoffset:0;stroke-width:1.5;"/>
   </g>
   <g id="line2d_16">
    <path clip-path="url(#p80c2fd0b02)" d="M 107.622273 492.580012 
L 111.154784 471.777543 
L 114.694901 464.738163 
L 118.214646 466.190233 
L 125.258754 460.933159 
L 128.79792 461.030288 
L 132.33016 463.108835 
L 135.848954 465.566183 
L 139.388528 458.441817 
L 142.898631 458.835186 
L 146.413894 463.324946 
L 149.942196 459.357251 
L 153.46425 460.100284 
L 156.994045 461.435799 
L 160.525334 450.04264 
L 164.062599 444.472328 
L 167.596468 443.984258 
L 171.125856 439.744604 
L 174.649268 434.822624 
L 178.173495 425.005373 
L 181.722303 421.163946 
L 185.250876 413.638925 
L 188.772794 411.402544 
L 192.311417 396.932845 
L 202.919544 368.211984 
L 206.453685 360.465996 
L 209.971393 348.718319 
L 213.486929 346.489223 
L 217.034107 333.323471 
L 220.533481 332.978666 
L 224.056486 322.100288 
L 227.579219 318.392412 
L 231.092853 303.099549 
L 234.633242 303.067982 
L 238.166704 296.713358 
L 241.694326 293.447417 
L 245.240282 289.880377 
L 248.774831 282.547185 
L 252.317799 277.865597 
L 255.850582 278.397375 
L 259.376031 275.04159 
L 262.912617 275.23099 
L 266.439696 269.420285 
L 269.964602 259.43306 
L 273.491953 251.271848 
L 277.029353 248.146743 
L 280.552222 238.856413 
L 284.08256 242.078647 
L 287.6148 243.924086 
L 291.143373 247.551831 
L 294.668007 242.947946 
L 298.200519 248.003478 
L 301.753537 247.920919 
L 305.316198 258.014985 
L 308.866093 270.034622 
L 312.409333 265.544863 
L 315.936276 268.320306 
L 319.473677 273.815344 
L 323.002385 273.953752 
L 326.548477 274.738064 
L 330.079359 283.569461 
L 333.609697 281.204385 
L 337.142752 287.107362 
L 340.697536 280.327802 
L 344.216466 287.323473 
L 347.744768 286.670284 
L 351.28244 290.999782 
L 354.817124 306.246509 
L 358.352895 285.325056 
L 361.863677 288.119925 
L 365.414794 295.234579 
L 368.94649 281.347649 
L 372.459174 285.269208 
L 375.99671 291.895791 
L 379.55 288.649275 
L 383.080202 286.357045 
L 386.620591 296.715787 
L 390.129743 281.850289 
L 393.648673 280.033988 
L 397.18879 283.450479 
L 400.707449 285.312915 
L 404.2147 282.751155 
L 407.740285 288.838675 
L 411.257721 279.069989 
L 414.805308 280.254955 
L 418.353029 287.34047 
L 421.902381 285.699001 
L 425.443312 282.925986 
L 428.941872 282.401492 
L 432.460802 282.287367 
L 435.968596 275.682637 
L 439.501379 293.818933 
L 443.031174 285.742708 
L 446.573871 291.509706 
L 450.094024 292.294017 
L 453.629387 280.138401 
L 457.176974 281.69974 
L 460.705546 286.138507 
L 464.244169 290.113485 
L 467.767174 282.088253 
L 471.281623 283.477189 
L 474.794713 284.205652 
L 478.324916 279.905293 
L 481.849415 288.280187 
L 485.387087 280.551197 
L 488.903573 284.31735 
L 492.4278 288.707552 
L 495.947138 280.866864 
L 499.479785 282.425774 
L 503.001024 280.308376 
L 506.535437 281.328224 
L 510.056404 284.744714 
L 513.589187 283.003688 
L 517.113143 282.996404 
L 520.631801 292.864647 
L 524.146522 277.724761 
L 527.675638 277.316822 
L 531.184654 281.556475 
L 534.71445 282.224233 
L 538.234467 277.36053 
L 541.764533 282.4452 
L 545.287538 283.183376 
L 548.811222 275.655927 
L 552.358536 277.277971 
L 555.882628 281.082975 
L 559.413373 281.405927 
L 562.944798 280.390935 
L 566.456667 274.490386 
L 570.008191 279.837303 
L 573.54953 283.841421 
L 577.086251 278.832025 
L 580.618491 279.851873 
L 584.149644 280.633756 
L 587.681205 274.808482 
L 591.208556 275.983735 
L 594.726535 280.230673 
L 598.275887 275.806476 
L 601.817362 281.607468 
L 605.348379 274.402971 
L 608.882384 278.768891 
L 612.399278 276.617498 
L 615.910196 291.334875 
L 619.451399 282.887134 
L 622.972366 279.89558 
L 626.503248 277.659199 
L 630.050426 289.397164 
L 633.586876 270.032194 
L 637.1164 276.003161 
L 640.650133 275.483524 
L 644.165125 276.47909 
L 647.699266 281.568617 
L 651.233 268.077485 
L 654.746498 284.331919 
L 658.25728 271.829069 
L 661.793051 269.473706 
L 665.331266 274.621509 
L 668.854271 274.247565 
L 672.374695 268.344588 
L 675.915491 271.809643 
L 679.449768 277.498938 
L 682.94792 273.174297 
L 686.480974 264.607574 
L 690.010769 267.579702 
L 693.520057 267.601556 
L 697.059088 270.260445 
L 700.586438 269.374149 
L 704.115011 267.75939 
L 707.638695 265.119926 
L 711.157897 264.971805 
L 714.679136 262.851979 
L 718.214092 269.06091 
L 721.750406 277.894736 
L 725.301387 268.662684 
L 728.80307 264.168068 
L 732.336125 266.100923 
L 735.862253 268.371299 
L 739.398974 259.634601 
L 742.92551 271.455124 
L 746.434934 271.824212 
L 749.965408 262.861691 
L 753.509599 262.893258 
L 757.033555 259.187811 
L 760.555201 254.6592 
L 764.073045 268.490281 
L 767.591025 260.773431 
L 771.119326 259.289795 
L 774.667727 259.345644 
L 774.667727 259.345644 
" style="fill:none;stroke:#ff7f0e;stroke-linecap:square;stroke-width:1.5;"/>
   </g>
   <g id="line2d_17">
    <path clip-path="url(#p80c2fd0b02)" d="M 107.622273 484.681047 
L 111.154784 456.067028 
L 114.694901 446.23278 
L 118.214646 447.616859 
L 121.722848 444.431048 
L 125.258754 442.954697 
L 128.79792 440.094266 
L 132.33016 444.911834 
L 135.848954 447.694562 
L 139.388528 437.185272 
L 142.898631 436.949735 
L 146.413894 447.034089 
L 149.942196 440.074841 
L 153.46425 440.791163 
L 156.994045 446.242493 
L 160.525334 432.139452 
L 164.062599 426.559427 
L 167.596468 430.296442 
L 171.125856 427.273321 
L 174.649268 422.404761 
L 178.173495 414.496083 
L 181.722303 408.91363 
L 185.250876 397.862849 
L 188.772794 401.527017 
L 192.311417 378.378897 
L 195.840669 367.364539 
L 199.391786 354.555734 
L 202.919544 348.361372 
L 206.453685 341.268573 
L 209.971393 331.8884 
L 213.486929 329.831706 
L 217.034107 316.546973 
L 220.533481 323.001153 
L 224.056486 308.101661 
L 227.579219 306.622881 
L 231.092853 291.451429 
L 234.633242 294.938337 
L 238.166704 284.713148 
L 241.694326 281.860002 
L 245.240282 275.315977 
L 248.774831 266.358313 
L 252.317799 262.405188 
L 255.850582 263.81355 
L 259.376031 260.550036 
L 262.912617 259.112536 
L 266.439696 256.953858 
L 269.964602 247.500839 
L 273.491953 247.993765 
L 277.029353 247.653816 
L 280.552222 239.718428 
L 284.08256 242.654133 
L 287.6148 245.975923 
L 291.143373 248.178309 
L 294.668007 245.060488 
L 298.200519 255.069567 
L 301.753537 251.446679 
L 305.316198 264.032088 
L 312.409333 258.459348 
L 315.936276 254.994293 
L 319.473677 256.61148 
L 323.002385 249.800353 
L 326.548477 251.135868 
L 330.079359 264.622143 
L 333.609697 254.6592 
L 337.142752 255.919441 
L 340.697536 250.99746 
L 344.216466 253.549508 
L 347.744768 251.300987 
L 351.28244 255.64991 
L 354.817124 263.320623 
L 358.352895 249.241865 
L 361.863677 248.372566 
L 365.414794 269.816083 
L 368.94649 241.653711 
L 372.459174 245.771954 
L 375.99671 256.383229 
L 379.55 251.339838 
L 383.080202 248.192879 
L 386.620591 251.555949 
L 390.129743 239.546025 
L 393.648673 240.13608 
L 397.18879 244.931793 
L 400.707449 248.120032 
L 404.2147 243.319462 
L 407.740285 249.839204 
L 411.257721 238.795708 
L 414.805308 237.829281 
L 418.353029 245.915218 
L 421.902381 249.511396 
L 425.443312 242.095645 
L 428.941872 241.126789 
L 432.460802 240.641147 
L 435.968596 236.821574 
L 439.501379 243.928943 
L 443.031174 248.030188 
L 446.573871 255.86602 
L 450.094024 249.431265 
L 453.629387 234.400649 
L 457.176974 233.966 
L 460.705546 242.923664 
L 464.244169 234.699319 
L 467.767174 233.645476 
L 474.794713 238.667013 
L 478.324916 230.301832 
L 481.849415 246.289162 
L 485.387087 227.905189 
L 488.903573 232.215261 
L 492.4278 250.963465 
L 495.947138 232.348812 
L 499.479785 233.713466 
L 503.001024 230.391675 
L 506.535437 231.984581 
L 510.056404 234.041274 
L 513.589187 236.416063 
L 517.113143 240.378901 
L 520.631801 239.970962 
L 524.146522 226.746933 
L 527.675638 223.201747 
L 531.184654 229.54423 
L 534.71445 229.976452 
L 538.234467 221.465578 
L 541.764533 230.804471 
L 545.287538 231.093428 
L 548.811222 221.472862 
L 552.358536 223.126473 
L 555.882628 227.099024 
L 559.413373 222.313023 
L 562.944798 226.722651 
L 566.456667 217.650861 
L 570.008191 229.279556 
L 573.54953 236.666169 
L 577.086251 218.053944 
L 580.618491 220.380168 
L 584.149644 227.259285 
L 587.681205 220.24176 
L 591.208556 218.457026 
L 594.726535 229.5588 
L 598.275887 212.668175 
L 601.817362 226.623095 
L 605.348379 217.213783 
L 608.882384 227.137875 
L 612.399278 218.738699 
L 615.910196 229.833187 
L 619.451399 223.590261 
L 622.972366 226.360848 
L 626.503248 225.928627 
L 630.050426 231.865599 
L 633.586876 209.302677 
L 637.1164 218.342901 
L 640.650133 219.435595 
L 644.165125 216.902972 
L 647.699266 224.685383 
L 651.233 205.019316 
L 654.746498 219.474446 
L 658.25728 209.581921 
L 661.793051 207.887031 
L 665.331266 216.555738 
L 668.854271 212.971701 
L 672.374695 208.598496 
L 675.915491 207.394104 
L 679.449768 225.588677 
L 682.94792 210.958716 
L 686.480974 203.19573 
L 690.010769 205.772061 
L 693.520057 208.015726 
L 697.059088 206.080443 
L 700.586438 205.043598 
L 704.115011 202.243872 
L 707.638695 204.390409 
L 711.157897 203.921765 
L 714.679136 201.003057 
L 718.214092 201.061334 
L 721.750406 213.29951 
L 725.301387 209.273538 
L 728.80307 204.421976 
L 732.336125 204.76921 
L 735.862253 208.676199 
L 739.398974 196.25348 
L 742.92551 213.593323 
L 746.434934 205.39326 
L 749.965408 203.171448 
L 753.509599 206.250418 
L 757.033555 197.637559 
L 760.555201 191.299933 
L 764.073045 213.836144 
L 767.591025 193.555739 
L 771.119326 194.437179 
L 774.667727 200.097335 
L 774.667727 200.097335 
" style="fill:none;stroke:#ff7f0e;stroke-dasharray:6,2.25;stroke-dashoffset:0;stroke-width:1.5;"/>
   </g>
   <g id="line2d_18"/>
   <g id="line2d_19"/>
   <g id="line2d_20"/>
   <g id="line2d_21"/>
   <g id="patch_3">
    <path d="M 74.27 516.76 
L 74.27 17.28 
" style="fill:none;stroke:#000000;stroke-linecap:square;stroke-linejoin:miter;stroke-width:0.8;"/>
   </g>
   <g id="patch_4">
    <path d="M 808.02 516.76 
L 808.02 17.28 
" style="fill:none;stroke:#000000;stroke-linecap:square;stroke-linejoin:miter;stroke-width:0.8;"/>
   </g>
   <g id="patch_5">
    <path d="M 74.27 516.76 
L 808.02 516.76 
" style="fill:none;stroke:#000000;stroke-linecap:square;stroke-linejoin:miter;stroke-width:0.8;"/>
   </g>
   <g id="patch_6">
    <path d="M 74.27 17.28 
L 808.02 17.28 
" style="fill:none;stroke:#000000;stroke-linecap:square;stroke-linejoin:miter;stroke-width:0.8;"/>
   </g>
   <g id="legend_1">
    <g id="patch_7">
     <path d="M 847.9075 162.99 
L 985.1625 162.99 
Q 988.3625 162.99 988.3625 159.79 
L 988.3625 20.48 
Q 988.3625 17.28 985.1625 17.28 
L 847.9075 17.28 
Q 844.7075 17.28 844.7075 20.48 
L 844.7075 159.79 
Q 844.7075 162.99 847.9075 162.99 
z
" style="fill:#ffffff;opacity:0.8;stroke:#cccccc;stroke-linejoin:miter;"/>
    </g>
    <g id="text_16">
     <!-- Strain -->
     <g transform="translate(895.9075 35.8375)scale(0.16 -0.16)">
      <defs>
       <path d="M 3425 4513 
L 3425 3897 
Q 3066 4069 2747 4153 
Q 2428 4238 2131 4238 
Q 1616 4238 1336 4038 
Q 1056 3838 1056 3469 
Q 1056 3159 1242 3001 
Q 1428 2844 1947 2747 
L 2328 2669 
Q 3034 2534 3370 2195 
Q 3706 1856 3706 1288 
Q 3706 609 3251 259 
Q 2797 -91 1919 -91 
Q 1588 -91 1214 -16 
Q 841 59 441 206 
L 441 856 
Q 825 641 1194 531 
Q 1563 422 1919 422 
Q 2459 422 2753 634 
Q 3047 847 3047 1241 
Q 3047 1584 2836 1778 
Q 2625 1972 2144 2069 
L 1759 2144 
Q 1053 2284 737 2584 
Q 422 2884 422 3419 
Q 422 4038 858 4394 
Q 1294 4750 2059 4750 
Q 2388 4750 2728 4690 
Q 3069 4631 3425 4513 
z
" id="DejaVuSans-53" transform="scale(0.015625)"/>
       <path d="M 1172 4494 
L 1172 3500 
L 2356 3500 
L 2356 3053 
L 1172 3053 
L 1172 1153 
Q 1172 725 1289 603 
Q 1406 481 1766 481 
L 2356 481 
L 2356 0 
L 1766 0 
Q 1100 0 847 248 
Q 594 497 594 1153 
L 594 3053 
L 172 3053 
L 172 3500 
L 594 3500 
L 594 4494 
L 1172 4494 
z
" id="DejaVuSans-74" transform="scale(0.015625)"/>
       <path d="M 2631 2963 
Q 2534 3019 2420 3045 
Q 2306 3072 2169 3072 
Q 1681 3072 1420 2755 
Q 1159 2438 1159 1844 
L 1159 0 
L 581 0 
L 581 3500 
L 1159 3500 
L 1159 2956 
Q 1341 3275 1631 3429 
Q 1922 3584 2338 3584 
Q 2397 3584 2469 3576 
Q 2541 3569 2628 3553 
L 2631 2963 
z
" id="DejaVuSans-72" transform="scale(0.015625)"/>
       <path d="M 3513 2113 
L 3513 0 
L 2938 0 
L 2938 2094 
Q 2938 2591 2744 2837 
Q 2550 3084 2163 3084 
Q 1697 3084 1428 2787 
Q 1159 2491 1159 1978 
L 1159 0 
L 581 0 
L 581 3500 
L 1159 3500 
L 1159 2956 
Q 1366 3272 1645 3428 
Q 1925 3584 2291 3584 
Q 2894 3584 3203 3211 
Q 3513 2838 3513 2113 
z
" id="DejaVuSans-6e" transform="scale(0.015625)"/>
      </defs>
      <use xlink:href="#DejaVuSans-53"/>
      <use x="63.476562" xlink:href="#DejaVuSans-74"/>
      <use x="102.685547" xlink:href="#DejaVuSans-72"/>
      <use x="143.798828" xlink:href="#DejaVuSans-61"/>
      <use x="205.078125" xlink:href="#DejaVuSans-69"/>
      <use x="232.861328" xlink:href="#DejaVuSans-6e"/>
     </g>
    </g>
    <g id="line2d_22">
     <path d="M 851.1075 53.7225 
L 883.1075 53.7225 
" style="fill:none;stroke:#1f77b4;stroke-linecap:square;stroke-width:1.5;"/>
    </g>
    <g id="line2d_23"/>
    <g id="text_17">
     <!-- E. coli -->
     <g transform="translate(895.9075 59.3225)scale(0.16 -0.16)">
      <defs>
       <path d="M 628 4666 
L 3578 4666 
L 3578 4134 
L 1259 4134 
L 1259 2753 
L 3481 2753 
L 3481 2222 
L 1259 2222 
L 1259 531 
L 3634 531 
L 3634 0 
L 628 0 
L 628 4666 
z
" id="DejaVuSans-45" transform="scale(0.015625)"/>
       <path d="M 684 794 
L 1344 794 
L 1344 0 
L 684 0 
L 684 794 
z
" id="DejaVuSans-2e" transform="scale(0.015625)"/>
       <path d="M 3122 3366 
L 3122 2828 
Q 2878 2963 2633 3030 
Q 2388 3097 2138 3097 
Q 1578 3097 1268 2742 
Q 959 2388 959 1747 
Q 959 1106 1268 751 
Q 1578 397 2138 397 
Q 2388 397 2633 464 
Q 2878 531 3122 666 
L 3122 134 
Q 2881 22 2623 -34 
Q 2366 -91 2075 -91 
Q 1284 -91 818 406 
Q 353 903 353 1747 
Q 353 2603 823 3093 
Q 1294 3584 2113 3584 
Q 2378 3584 2631 3529 
Q 2884 3475 3122 3366 
z
" id="DejaVuSans-63" transform="scale(0.015625)"/>
       <path d="M 603 4863 
L 1178 4863 
L 1178 0 
L 603 0 
L 603 4863 
z
" id="DejaVuSans-6c" transform="scale(0.015625)"/>
      </defs>
      <use xlink:href="#DejaVuSans-45"/>
      <use x="63.183594" xlink:href="#DejaVuSans-2e"/>
      <use x="94.970703" xlink:href="#DejaVuSans-20"/>
      <use x="126.757812" xlink:href="#DejaVuSans-63"/>
      <use x="181.738281" xlink:href="#DejaVuSans-6f"/>
      <use x="242.919922" xlink:href="#DejaVuSans-6c"/>
      <use x="270.703125" xlink:href="#DejaVuSans-69"/>
     </g>
    </g>
    <g id="line2d_24">
     <path d="M 851.1075 77.2075 
L 883.1075 77.2075 
" style="fill:none;stroke:#ff7f0e;stroke-linecap:square;stroke-width:1.5;"/>
    </g>
    <g id="line2d_25"/>
    <g id="text_18">
     <!-- S. enterica -->
     <g transform="translate(895.9075 82.8075)scale(0.16 -0.16)">
      <use xlink:href="#DejaVuSans-53"/>
      <use x="63.476562" xlink:href="#DejaVuSans-2e"/>
      <use x="95.263672" xlink:href="#DejaVuSans-20"/>
      <use x="127.050781" xlink:href="#DejaVuSans-65"/>
      <use x="188.574219" xlink:href="#DejaVuSans-6e"/>
      <use x="251.953125" xlink:href="#DejaVuSans-74"/>
      <use x="291.162109" xlink:href="#DejaVuSans-65"/>
      <use x="352.685547" xlink:href="#DejaVuSans-72"/>
      <use x="393.798828" xlink:href="#DejaVuSans-69"/>
      <use x="421.582031" xlink:href="#DejaVuSans-63"/>
      <use x="476.5625" xlink:href="#DejaVuSans-61"/>
     </g>
    </g>
    <g id="text_19">
     <!-- Medium -->
     <g transform="translate(895.9075 106.2925)scale(0.16 -0.16)">
      <defs>
       <path d="M 628 4666 
L 1569 4666 
L 2759 1491 
L 3956 4666 
L 4897 4666 
L 4897 0 
L 4281 0 
L 4281 4097 
L 3078 897 
L 2444 897 
L 1241 4097 
L 1241 0 
L 628 0 
L 628 4666 
z
" id="DejaVuSans-4d" transform="scale(0.015625)"/>
       <path d="M 2906 2969 
L 2906 4863 
L 3481 4863 
L 3481 0 
L 2906 0 
L 2906 525 
Q 2725 213 2448 61 
Q 2172 -91 1784 -91 
Q 1150 -91 751 415 
Q 353 922 353 1747 
Q 353 2572 751 3078 
Q 1150 3584 1784 3584 
Q 2172 3584 2448 3432 
Q 2725 3281 2906 2969 
z
M 947 1747 
Q 947 1113 1208 752 
Q 1469 391 1925 391 
Q 2381 391 2643 752 
Q 2906 1113 2906 1747 
Q 2906 2381 2643 2742 
Q 2381 3103 1925 3103 
Q 1469 3103 1208 2742 
Q 947 2381 947 1747 
z
" id="DejaVuSans-64" transform="scale(0.015625)"/>
       <path d="M 544 1381 
L 544 3500 
L 1119 3500 
L 1119 1403 
Q 1119 906 1312 657 
Q 1506 409 1894 409 
Q 2359 409 2629 706 
Q 2900 1003 2900 1516 
L 2900 3500 
L 3475 3500 
L 3475 0 
L 2900 0 
L 2900 538 
Q 2691 219 2414 64 
Q 2138 -91 1772 -91 
Q 1169 -91 856 284 
Q 544 659 544 1381 
z
M 1991 3584 
L 1991 3584 
z
" id="DejaVuSans-75" transform="scale(0.015625)"/>
      </defs>
      <use xlink:href="#DejaVuSans-4d"/>
      <use x="86.279297" xlink:href="#DejaVuSans-65"/>
      <use x="147.802734" xlink:href="#DejaVuSans-64"/>
      <use x="211.279297" xlink:href="#DejaVuSans-69"/>
      <use x="239.0625" xlink:href="#DejaVuSans-75"/>
      <use x="302.441406" xlink:href="#DejaVuSans-6d"/>
     </g>
    </g>
    <g id="line2d_26">
     <path d="M 851.1075 124.1775 
L 883.1075 124.1775 
" style="fill:none;stroke:#333333;stroke-linecap:square;stroke-width:1.5;"/>
    </g>
    <g id="line2d_27"/>
    <g id="text_20">
     <!-- Glucose -->
     <g transform="translate(895.9075 129.7775)scale(0.16 -0.16)">
      <defs>
       <path d="M 3809 666 
L 3809 1919 
L 2778 1919 
L 2778 2438 
L 4434 2438 
L 4434 434 
Q 4069 175 3628 42 
Q 3188 -91 2688 -91 
Q 1594 -91 976 548 
Q 359 1188 359 2328 
Q 359 3472 976 4111 
Q 1594 4750 2688 4750 
Q 3144 4750 3555 4637 
Q 3966 4525 4313 4306 
L 4313 3634 
Q 3963 3931 3569 4081 
Q 3175 4231 2741 4231 
Q 1884 4231 1454 3753 
Q 1025 3275 1025 2328 
Q 1025 1384 1454 906 
Q 1884 428 2741 428 
Q 3075 428 3337 486 
Q 3600 544 3809 666 
z
" id="DejaVuSans-47" transform="scale(0.015625)"/>
      </defs>
      <use xlink:href="#DejaVuSans-47"/>
      <use x="77.490234" xlink:href="#DejaVuSans-6c"/>
      <use x="105.273438" xlink:href="#DejaVuSans-75"/>
      <use x="168.652344" xlink:href="#DejaVuSans-63"/>
      <use x="223.632812" xlink:href="#DejaVuSans-6f"/>
      <use x="284.814453" xlink:href="#DejaVuSans-73"/>
      <use x="336.914062" xlink:href="#DejaVuSans-65"/>
     </g>
    </g>
    <g id="line2d_28">
     <path d="M 851.1075 147.6625 
L 883.1075 147.6625 
" style="fill:none;stroke:#333333;stroke-dasharray:6,2.25;stroke-dashoffset:0;stroke-width:1.5;"/>
    </g>
    <g id="line2d_29"/>
    <g id="text_21">
     <!-- NAG -->
     <g transform="translate(895.9075 153.2625)scale(0.16 -0.16)">
      <defs>
       <path d="M 628 4666 
L 1478 4666 
L 3547 763 
L 3547 4666 
L 4159 4666 
L 4159 0 
L 3309 0 
L 1241 3903 
L 1241 0 
L 628 0 
L 628 4666 
z
" id="DejaVuSans-4e" transform="scale(0.015625)"/>
       <path d="M 2188 4044 
L 1331 1722 
L 3047 1722 
L 2188 4044 
z
M 1831 4666 
L 2547 4666 
L 4325 0 
L 3669 0 
L 3244 1197 
L 1141 1197 
L 716 0 
L 50 0 
L 1831 4666 
z
" id="DejaVuSans-41" transform="scale(0.015625)"/>
      </defs>
      <use xlink:href="#DejaVuSans-4e"/>
      <use x="74.804688" xlink:href="#DejaVuSans-41"/>
      <use x="141.462891" xlink:href="#DejaVuSans-47"/>
     </g>
    </g>
   </g>
  </g>
  <g id="text_22">
   <!-- Shaded regions display 95% CI -->
   <g transform="translate(100.8 570.24)scale(0.16 -0.16)">
    <defs>
     <path d="M 2906 1791 
Q 2906 2416 2648 2759 
Q 2391 3103 1925 3103 
Q 1463 3103 1205 2759 
Q 947 2416 947 1791 
Q 947 1169 1205 825 
Q 1463 481 1925 481 
Q 2391 481 2648 825 
Q 2906 1169 2906 1791 
z
M 3481 434 
Q 3481 -459 3084 -895 
Q 2688 -1331 1869 -1331 
Q 1566 -1331 1297 -1286 
Q 1028 -1241 775 -1147 
L 775 -588 
Q 1028 -725 1275 -790 
Q 1522 -856 1778 -856 
Q 2344 -856 2625 -561 
Q 2906 -266 2906 331 
L 2906 616 
Q 2728 306 2450 153 
Q 2172 0 1784 0 
Q 1141 0 747 490 
Q 353 981 353 1791 
Q 353 2603 747 3093 
Q 1141 3584 1784 3584 
Q 2172 3584 2450 3431 
Q 2728 3278 2906 2969 
L 2906 3500 
L 3481 3500 
L 3481 434 
z
" id="DejaVuSans-67" transform="scale(0.015625)"/>
     <path d="M 1159 525 
L 1159 -1331 
L 581 -1331 
L 581 3500 
L 1159 3500 
L 1159 2969 
Q 1341 3281 1617 3432 
Q 1894 3584 2278 3584 
Q 2916 3584 3314 3078 
Q 3713 2572 3713 1747 
Q 3713 922 3314 415 
Q 2916 -91 2278 -91 
Q 1894 -91 1617 61 
Q 1341 213 1159 525 
z
M 3116 1747 
Q 3116 2381 2855 2742 
Q 2594 3103 2138 3103 
Q 1681 3103 1420 2742 
Q 1159 2381 1159 1747 
Q 1159 1113 1420 752 
Q 1681 391 2138 391 
Q 2594 391 2855 752 
Q 3116 1113 3116 1747 
z
" id="DejaVuSans-70" transform="scale(0.015625)"/>
     <path d="M 2059 -325 
Q 1816 -950 1584 -1140 
Q 1353 -1331 966 -1331 
L 506 -1331 
L 506 -850 
L 844 -850 
Q 1081 -850 1212 -737 
Q 1344 -625 1503 -206 
L 1606 56 
L 191 3500 
L 800 3500 
L 1894 763 
L 2988 3500 
L 3597 3500 
L 2059 -325 
z
" id="DejaVuSans-79" transform="scale(0.015625)"/>
     <path d="M 703 97 
L 703 672 
Q 941 559 1184 500 
Q 1428 441 1663 441 
Q 2288 441 2617 861 
Q 2947 1281 2994 2138 
Q 2813 1869 2534 1725 
Q 2256 1581 1919 1581 
Q 1219 1581 811 2004 
Q 403 2428 403 3163 
Q 403 3881 828 4315 
Q 1253 4750 1959 4750 
Q 2769 4750 3195 4129 
Q 3622 3509 3622 2328 
Q 3622 1225 3098 567 
Q 2575 -91 1691 -91 
Q 1453 -91 1209 -44 
Q 966 3 703 97 
z
M 1959 2075 
Q 2384 2075 2632 2365 
Q 2881 2656 2881 3163 
Q 2881 3666 2632 3958 
Q 2384 4250 1959 4250 
Q 1534 4250 1286 3958 
Q 1038 3666 1038 3163 
Q 1038 2656 1286 2365 
Q 1534 2075 1959 2075 
z
" id="DejaVuSans-39" transform="scale(0.015625)"/>
     <path d="M 4653 2053 
Q 4381 2053 4226 1822 
Q 4072 1591 4072 1178 
Q 4072 772 4226 539 
Q 4381 306 4653 306 
Q 4919 306 5073 539 
Q 5228 772 5228 1178 
Q 5228 1588 5073 1820 
Q 4919 2053 4653 2053 
z
M 4653 2450 
Q 5147 2450 5437 2106 
Q 5728 1763 5728 1178 
Q 5728 594 5436 251 
Q 5144 -91 4653 -91 
Q 4153 -91 3862 251 
Q 3572 594 3572 1178 
Q 3572 1766 3864 2108 
Q 4156 2450 4653 2450 
z
M 1428 4353 
Q 1159 4353 1004 4120 
Q 850 3888 850 3481 
Q 850 3069 1003 2837 
Q 1156 2606 1428 2606 
Q 1700 2606 1854 2837 
Q 2009 3069 2009 3481 
Q 2009 3884 1853 4118 
Q 1697 4353 1428 4353 
z
M 4250 4750 
L 4750 4750 
L 1831 -91 
L 1331 -91 
L 4250 4750 
z
M 1428 4750 
Q 1922 4750 2215 4408 
Q 2509 4066 2509 3481 
Q 2509 2891 2217 2550 
Q 1925 2209 1428 2209 
Q 931 2209 642 2551 
Q 353 2894 353 3481 
Q 353 4063 643 4406 
Q 934 4750 1428 4750 
z
" id="DejaVuSans-25" transform="scale(0.015625)"/>
     <path d="M 4122 4306 
L 4122 3641 
Q 3803 3938 3442 4084 
Q 3081 4231 2675 4231 
Q 1875 4231 1450 3742 
Q 1025 3253 1025 2328 
Q 1025 1406 1450 917 
Q 1875 428 2675 428 
Q 3081 428 3442 575 
Q 3803 722 4122 1019 
L 4122 359 
Q 3791 134 3420 21 
Q 3050 -91 2638 -91 
Q 1578 -91 968 557 
Q 359 1206 359 2328 
Q 359 3453 968 4101 
Q 1578 4750 2638 4750 
Q 3056 4750 3426 4639 
Q 3797 4528 4122 4306 
z
" id="DejaVuSans-43" transform="scale(0.015625)"/>
     <path d="M 628 4666 
L 1259 4666 
L 1259 0 
L 628 0 
L 628 4666 
z
" id="DejaVuSans-49" transform="scale(0.015625)"/>
    </defs>
    <use xlink:href="#DejaVuSans-53"/>
    <use x="63.476562" xlink:href="#DejaVuSans-68"/>
    <use x="126.855469" xlink:href="#DejaVuSans-61"/>
    <use x="188.134766" xlink:href="#DejaVuSans-64"/>
    <use x="251.611328" xlink:href="#DejaVuSans-65"/>
    <use x="313.134766" xlink:href="#DejaVuSans-64"/>
    <use x="376.611328" xlink:href="#DejaVuSans-20"/>
    <use x="408.398438" xlink:href="#DejaVuSans-72"/>
    <use x="447.261719" xlink:href="#DejaVuSans-65"/>
    <use x="508.785156" xlink:href="#DejaVuSans-67"/>
    <use x="572.261719" xlink:href="#DejaVuSans-69"/>
    <use x="600.044922" xlink:href="#DejaVuSans-6f"/>
    <use x="661.226562" xlink:href="#DejaVuSans-6e"/>
    <use x="724.605469" xlink:href="#DejaVuSans-73"/>
    <use x="776.705078" xlink:href="#DejaVuSans-20"/>
    <use x="808.492188" xlink:href="#DejaVuSans-64"/>
    <use x="871.96875" xlink:href="#DejaVuSans-69"/>
    <use x="899.751953" xlink:href="#DejaVuSans-73"/>
    <use x="951.851562" xlink:href="#DejaVuSans-70"/>
    <use x="1015.328125" xlink:href="#DejaVuSans-6c"/>
    <use x="1043.111328" xlink:href="#DejaVuSans-61"/>
    <use x="1104.390625" xlink:href="#DejaVuSans-79"/>
    <use x="1163.570312" xlink:href="#DejaVuSans-20"/>
    <use x="1195.357422" xlink:href="#DejaVuSans-39"/>
    <use x="1258.980469" xlink:href="#DejaVuSans-35"/>
    <use x="1322.603516" xlink:href="#DejaVuSans-25"/>
    <use x="1417.623047" xlink:href="#DejaVuSans-20"/>
    <use x="1449.410156" xlink:href="#DejaVuSans-43"/>
    <use x="1519.234375" xlink:href="#DejaVuSans-49"/>
   </g>
  </g>
 </g>
 <defs>
  <clipPath id="p80c2fd0b02">
   <rect height="499.48" width="733.75" x="74.27" y="17.28"/>
  </clipPath>
 </defs>
</svg>
